<?xml version="1.0" encoding="utf-8" standalone="no"?>
<!DOCTYPE svg PUBLIC "-//W3C//DTD SVG 1.1//EN"
  "http://www.w3.org/Graphics/SVG/1.1/DTD/svg11.dtd">
<!-- Created with matplotlib (http://matplotlib.org/) -->
<svg height="432pt" version="1.1" viewBox="0 0 504 432" width="504pt" xmlns="http://www.w3.org/2000/svg" xmlns:xlink="http://www.w3.org/1999/xlink">
 <defs>
  <style type="text/css">
*{stroke-linecap:butt;stroke-linejoin:round;}
  </style>
 </defs>
 <g id="figure_1">
  <g id="patch_1">
   <path d="M 0 432 
L 504 432 
L 504 0 
L 0 0 
z
" style="fill:#ffffff;"/>
  </g>
  <g id="axes_1">
   <g id="patch_2">
    <path d="M 63 384.48 
L 453.6 384.48 
L 453.6 51.84 
L 63 51.84 
z
" style="fill:#ffffff;"/>
   </g>
   <g id="matplotlib.axis_1">
    <g id="xtick_1">
     <g id="line2d_1">
      <defs>
       <path d="M 0 0 
L 0 3.5 
" id="m6189c0bd0b" style="stroke:#000000;stroke-width:0.8;"/>
      </defs>
      <g>
       <use style="stroke:#000000;stroke-width:0.8;" x="80.754545" xlink:href="#m6189c0bd0b" y="384.48"/>
      </g>
     </g>
     <g id="text_1">
      <!-- 0 -->
      <defs>
       <path d="M 31.78125 66.40625 
Q 24.171875 66.40625 20.328125 58.90625 
Q 16.5 51.421875 16.5 36.375 
Q 16.5 21.390625 20.328125 13.890625 
Q 24.171875 6.390625 31.78125 6.390625 
Q 39.453125 6.390625 43.28125 13.890625 
Q 47.125 21.390625 47.125 36.375 
Q 47.125 51.421875 43.28125 58.90625 
Q 39.453125 66.40625 31.78125 66.40625 
z
M 31.78125 74.21875 
Q 44.046875 74.21875 50.515625 64.515625 
Q 56.984375 54.828125 56.984375 36.375 
Q 56.984375 17.96875 50.515625 8.265625 
Q 44.046875 -1.421875 31.78125 -1.421875 
Q 19.53125 -1.421875 13.0625 8.265625 
Q 6.59375 17.96875 6.59375 36.375 
Q 6.59375 54.828125 13.0625 64.515625 
Q 19.53125 74.21875 31.78125 74.21875 
z
" id="DejaVuSans-30"/>
      </defs>
      <g transform="translate(77.573295 399.078438)scale(0.1 -0.1)">
       <use xlink:href="#DejaVuSans-30"/>
      </g>
     </g>
    </g>
    <g id="xtick_2">
     <g id="line2d_2">
      <g>
       <use style="stroke:#000000;stroke-width:0.8;" x="151.772727" xlink:href="#m6189c0bd0b" y="384.48"/>
      </g>
     </g>
     <g id="text_2">
      <!-- 200 -->
      <defs>
       <path d="M 19.1875 8.296875 
L 53.609375 8.296875 
L 53.609375 0 
L 7.328125 0 
L 7.328125 8.296875 
Q 12.9375 14.109375 22.625 23.890625 
Q 32.328125 33.6875 34.8125 36.53125 
Q 39.546875 41.84375 41.421875 45.53125 
Q 43.3125 49.21875 43.3125 52.78125 
Q 43.3125 58.59375 39.234375 62.25 
Q 35.15625 65.921875 28.609375 65.921875 
Q 23.96875 65.921875 18.8125 64.3125 
Q 13.671875 62.703125 7.8125 59.421875 
L 7.8125 69.390625 
Q 13.765625 71.78125 18.9375 73 
Q 24.125 74.21875 28.421875 74.21875 
Q 39.75 74.21875 46.484375 68.546875 
Q 53.21875 62.890625 53.21875 53.421875 
Q 53.21875 48.921875 51.53125 44.890625 
Q 49.859375 40.875 45.40625 35.40625 
Q 44.1875 33.984375 37.640625 27.21875 
Q 31.109375 20.453125 19.1875 8.296875 
z
" id="DejaVuSans-32"/>
      </defs>
      <g transform="translate(142.228977 399.078438)scale(0.1 -0.1)">
       <use xlink:href="#DejaVuSans-32"/>
       <use x="63.623047" xlink:href="#DejaVuSans-30"/>
       <use x="127.246094" xlink:href="#DejaVuSans-30"/>
      </g>
     </g>
    </g>
    <g id="xtick_3">
     <g id="line2d_3">
      <g>
       <use style="stroke:#000000;stroke-width:0.8;" x="222.790909" xlink:href="#m6189c0bd0b" y="384.48"/>
      </g>
     </g>
     <g id="text_3">
      <!-- 400 -->
      <defs>
       <path d="M 37.796875 64.3125 
L 12.890625 25.390625 
L 37.796875 25.390625 
z
M 35.203125 72.90625 
L 47.609375 72.90625 
L 47.609375 25.390625 
L 58.015625 25.390625 
L 58.015625 17.1875 
L 47.609375 17.1875 
L 47.609375 0 
L 37.796875 0 
L 37.796875 17.1875 
L 4.890625 17.1875 
L 4.890625 26.703125 
z
" id="DejaVuSans-34"/>
      </defs>
      <g transform="translate(213.247159 399.078438)scale(0.1 -0.1)">
       <use xlink:href="#DejaVuSans-34"/>
       <use x="63.623047" xlink:href="#DejaVuSans-30"/>
       <use x="127.246094" xlink:href="#DejaVuSans-30"/>
      </g>
     </g>
    </g>
    <g id="xtick_4">
     <g id="line2d_4">
      <g>
       <use style="stroke:#000000;stroke-width:0.8;" x="293.809091" xlink:href="#m6189c0bd0b" y="384.48"/>
      </g>
     </g>
     <g id="text_4">
      <!-- 600 -->
      <defs>
       <path d="M 33.015625 40.375 
Q 26.375 40.375 22.484375 35.828125 
Q 18.609375 31.296875 18.609375 23.390625 
Q 18.609375 15.53125 22.484375 10.953125 
Q 26.375 6.390625 33.015625 6.390625 
Q 39.65625 6.390625 43.53125 10.953125 
Q 47.40625 15.53125 47.40625 23.390625 
Q 47.40625 31.296875 43.53125 35.828125 
Q 39.65625 40.375 33.015625 40.375 
z
M 52.59375 71.296875 
L 52.59375 62.3125 
Q 48.875 64.0625 45.09375 64.984375 
Q 41.3125 65.921875 37.59375 65.921875 
Q 27.828125 65.921875 22.671875 59.328125 
Q 17.53125 52.734375 16.796875 39.40625 
Q 19.671875 43.65625 24.015625 45.921875 
Q 28.375 48.1875 33.59375 48.1875 
Q 44.578125 48.1875 50.953125 41.515625 
Q 57.328125 34.859375 57.328125 23.390625 
Q 57.328125 12.15625 50.6875 5.359375 
Q 44.046875 -1.421875 33.015625 -1.421875 
Q 20.359375 -1.421875 13.671875 8.265625 
Q 6.984375 17.96875 6.984375 36.375 
Q 6.984375 53.65625 15.1875 63.9375 
Q 23.390625 74.21875 37.203125 74.21875 
Q 40.921875 74.21875 44.703125 73.484375 
Q 48.484375 72.75 52.59375 71.296875 
z
" id="DejaVuSans-36"/>
      </defs>
      <g transform="translate(284.265341 399.078438)scale(0.1 -0.1)">
       <use xlink:href="#DejaVuSans-36"/>
       <use x="63.623047" xlink:href="#DejaVuSans-30"/>
       <use x="127.246094" xlink:href="#DejaVuSans-30"/>
      </g>
     </g>
    </g>
    <g id="xtick_5">
     <g id="line2d_5">
      <g>
       <use style="stroke:#000000;stroke-width:0.8;" x="364.827273" xlink:href="#m6189c0bd0b" y="384.48"/>
      </g>
     </g>
     <g id="text_5">
      <!-- 800 -->
      <defs>
       <path d="M 31.78125 34.625 
Q 24.75 34.625 20.71875 30.859375 
Q 16.703125 27.09375 16.703125 20.515625 
Q 16.703125 13.921875 20.71875 10.15625 
Q 24.75 6.390625 31.78125 6.390625 
Q 38.8125 6.390625 42.859375 10.171875 
Q 46.921875 13.96875 46.921875 20.515625 
Q 46.921875 27.09375 42.890625 30.859375 
Q 38.875 34.625 31.78125 34.625 
z
M 21.921875 38.8125 
Q 15.578125 40.375 12.03125 44.71875 
Q 8.5 49.078125 8.5 55.328125 
Q 8.5 64.0625 14.71875 69.140625 
Q 20.953125 74.21875 31.78125 74.21875 
Q 42.671875 74.21875 48.875 69.140625 
Q 55.078125 64.0625 55.078125 55.328125 
Q 55.078125 49.078125 51.53125 44.71875 
Q 48 40.375 41.703125 38.8125 
Q 48.828125 37.15625 52.796875 32.3125 
Q 56.78125 27.484375 56.78125 20.515625 
Q 56.78125 9.90625 50.3125 4.234375 
Q 43.84375 -1.421875 31.78125 -1.421875 
Q 19.734375 -1.421875 13.25 4.234375 
Q 6.78125 9.90625 6.78125 20.515625 
Q 6.78125 27.484375 10.78125 32.3125 
Q 14.796875 37.15625 21.921875 38.8125 
z
M 18.3125 54.390625 
Q 18.3125 48.734375 21.84375 45.5625 
Q 25.390625 42.390625 31.78125 42.390625 
Q 38.140625 42.390625 41.71875 45.5625 
Q 45.3125 48.734375 45.3125 54.390625 
Q 45.3125 60.0625 41.71875 63.234375 
Q 38.140625 66.40625 31.78125 66.40625 
Q 25.390625 66.40625 21.84375 63.234375 
Q 18.3125 60.0625 18.3125 54.390625 
z
" id="DejaVuSans-38"/>
      </defs>
      <g transform="translate(355.283523 399.078438)scale(0.1 -0.1)">
       <use xlink:href="#DejaVuSans-38"/>
       <use x="63.623047" xlink:href="#DejaVuSans-30"/>
       <use x="127.246094" xlink:href="#DejaVuSans-30"/>
      </g>
     </g>
    </g>
    <g id="text_6">
     <!-- time [ms] -->
     <defs>
      <path d="M 18.3125 70.21875 
L 18.3125 54.6875 
L 36.8125 54.6875 
L 36.8125 47.703125 
L 18.3125 47.703125 
L 18.3125 18.015625 
Q 18.3125 11.328125 20.140625 9.421875 
Q 21.96875 7.515625 27.59375 7.515625 
L 36.8125 7.515625 
L 36.8125 0 
L 27.59375 0 
Q 17.1875 0 13.234375 3.875 
Q 9.28125 7.765625 9.28125 18.015625 
L 9.28125 47.703125 
L 2.6875 47.703125 
L 2.6875 54.6875 
L 9.28125 54.6875 
L 9.28125 70.21875 
z
" id="DejaVuSans-74"/>
      <path d="M 9.421875 54.6875 
L 18.40625 54.6875 
L 18.40625 0 
L 9.421875 0 
z
M 9.421875 75.984375 
L 18.40625 75.984375 
L 18.40625 64.59375 
L 9.421875 64.59375 
z
" id="DejaVuSans-69"/>
      <path d="M 52 44.1875 
Q 55.375 50.25 60.0625 53.125 
Q 64.75 56 71.09375 56 
Q 79.640625 56 84.28125 50.015625 
Q 88.921875 44.046875 88.921875 33.015625 
L 88.921875 0 
L 79.890625 0 
L 79.890625 32.71875 
Q 79.890625 40.578125 77.09375 44.375 
Q 74.3125 48.1875 68.609375 48.1875 
Q 61.625 48.1875 57.5625 43.546875 
Q 53.515625 38.921875 53.515625 30.90625 
L 53.515625 0 
L 44.484375 0 
L 44.484375 32.71875 
Q 44.484375 40.625 41.703125 44.40625 
Q 38.921875 48.1875 33.109375 48.1875 
Q 26.21875 48.1875 22.15625 43.53125 
Q 18.109375 38.875 18.109375 30.90625 
L 18.109375 0 
L 9.078125 0 
L 9.078125 54.6875 
L 18.109375 54.6875 
L 18.109375 46.1875 
Q 21.1875 51.21875 25.484375 53.609375 
Q 29.78125 56 35.6875 56 
Q 41.65625 56 45.828125 52.96875 
Q 50 49.953125 52 44.1875 
z
" id="DejaVuSans-6d"/>
      <path d="M 56.203125 29.59375 
L 56.203125 25.203125 
L 14.890625 25.203125 
Q 15.484375 15.921875 20.484375 11.0625 
Q 25.484375 6.203125 34.421875 6.203125 
Q 39.59375 6.203125 44.453125 7.46875 
Q 49.3125 8.734375 54.109375 11.28125 
L 54.109375 2.78125 
Q 49.265625 0.734375 44.1875 -0.34375 
Q 39.109375 -1.421875 33.890625 -1.421875 
Q 20.796875 -1.421875 13.15625 6.1875 
Q 5.515625 13.8125 5.515625 26.8125 
Q 5.515625 40.234375 12.765625 48.109375 
Q 20.015625 56 32.328125 56 
Q 43.359375 56 49.78125 48.890625 
Q 56.203125 41.796875 56.203125 29.59375 
z
M 47.21875 32.234375 
Q 47.125 39.59375 43.09375 43.984375 
Q 39.0625 48.390625 32.421875 48.390625 
Q 24.90625 48.390625 20.390625 44.140625 
Q 15.875 39.890625 15.1875 32.171875 
z
" id="DejaVuSans-65"/>
      <path id="DejaVuSans-20"/>
      <path d="M 8.59375 75.984375 
L 29.296875 75.984375 
L 29.296875 69 
L 17.578125 69 
L 17.578125 -6.203125 
L 29.296875 -6.203125 
L 29.296875 -13.1875 
L 8.59375 -13.1875 
z
" id="DejaVuSans-5b"/>
      <path d="M 44.28125 53.078125 
L 44.28125 44.578125 
Q 40.484375 46.53125 36.375 47.5 
Q 32.28125 48.484375 27.875 48.484375 
Q 21.1875 48.484375 17.84375 46.4375 
Q 14.5 44.390625 14.5 40.28125 
Q 14.5 37.15625 16.890625 35.375 
Q 19.28125 33.59375 26.515625 31.984375 
L 29.59375 31.296875 
Q 39.15625 29.25 43.1875 25.515625 
Q 47.21875 21.78125 47.21875 15.09375 
Q 47.21875 7.46875 41.1875 3.015625 
Q 35.15625 -1.421875 24.609375 -1.421875 
Q 20.21875 -1.421875 15.453125 -0.5625 
Q 10.6875 0.296875 5.421875 2 
L 5.421875 11.28125 
Q 10.40625 8.6875 15.234375 7.390625 
Q 20.0625 6.109375 24.8125 6.109375 
Q 31.15625 6.109375 34.5625 8.28125 
Q 37.984375 10.453125 37.984375 14.40625 
Q 37.984375 18.0625 35.515625 20.015625 
Q 33.0625 21.96875 24.703125 23.78125 
L 21.578125 24.515625 
Q 13.234375 26.265625 9.515625 29.90625 
Q 5.8125 33.546875 5.8125 39.890625 
Q 5.8125 47.609375 11.28125 51.796875 
Q 16.75 56 26.8125 56 
Q 31.78125 56 36.171875 55.265625 
Q 40.578125 54.546875 44.28125 53.078125 
z
" id="DejaVuSans-73"/>
      <path d="M 30.421875 75.984375 
L 30.421875 -13.1875 
L 9.71875 -13.1875 
L 9.71875 -6.203125 
L 21.390625 -6.203125 
L 21.390625 69 
L 9.71875 69 
L 9.71875 75.984375 
z
" id="DejaVuSans-5d"/>
     </defs>
     <g transform="translate(234.038281 412.756563)scale(0.1 -0.1)">
      <use xlink:href="#DejaVuSans-74"/>
      <use x="39.208984" xlink:href="#DejaVuSans-69"/>
      <use x="66.992188" xlink:href="#DejaVuSans-6d"/>
      <use x="164.404297" xlink:href="#DejaVuSans-65"/>
      <use x="225.927734" xlink:href="#DejaVuSans-20"/>
      <use x="257.714844" xlink:href="#DejaVuSans-5b"/>
      <use x="296.728516" xlink:href="#DejaVuSans-6d"/>
      <use x="394.140625" xlink:href="#DejaVuSans-73"/>
      <use x="446.240234" xlink:href="#DejaVuSans-5d"/>
     </g>
    </g>
   </g>
   <g id="matplotlib.axis_2">
    <g id="ytick_1">
     <g id="line2d_6">
      <defs>
       <path d="M 0 0 
L -3.5 0 
" id="mdc98d57d6d" style="stroke:#000000;stroke-width:0.8;"/>
      </defs>
      <g>
       <use style="stroke:#000000;stroke-width:0.8;" x="63" xlink:href="#mdc98d57d6d" y="381.880952"/>
      </g>
     </g>
     <g id="text_7">
      <!-- −80 -->
      <defs>
       <path d="M 10.59375 35.5 
L 73.1875 35.5 
L 73.1875 27.203125 
L 10.59375 27.203125 
z
" id="DejaVuSans-2212"/>
      </defs>
      <g transform="translate(34.895313 385.68017)scale(0.1 -0.1)">
       <use xlink:href="#DejaVuSans-2212"/>
       <use x="83.789062" xlink:href="#DejaVuSans-38"/>
       <use x="147.412109" xlink:href="#DejaVuSans-30"/>
      </g>
     </g>
    </g>
    <g id="ytick_2">
     <g id="line2d_7">
      <g>
       <use style="stroke:#000000;stroke-width:0.8;" x="63" xlink:href="#mdc98d57d6d" y="329.531182"/>
      </g>
     </g>
     <g id="text_8">
      <!-- −60 -->
      <g transform="translate(34.895313 333.330401)scale(0.1 -0.1)">
       <use xlink:href="#DejaVuSans-2212"/>
       <use x="83.789062" xlink:href="#DejaVuSans-36"/>
       <use x="147.412109" xlink:href="#DejaVuSans-30"/>
      </g>
     </g>
    </g>
    <g id="ytick_3">
     <g id="line2d_8">
      <g>
       <use style="stroke:#000000;stroke-width:0.8;" x="63" xlink:href="#mdc98d57d6d" y="277.181412"/>
      </g>
     </g>
     <g id="text_9">
      <!-- −40 -->
      <g transform="translate(34.895313 280.980631)scale(0.1 -0.1)">
       <use xlink:href="#DejaVuSans-2212"/>
       <use x="83.789062" xlink:href="#DejaVuSans-34"/>
       <use x="147.412109" xlink:href="#DejaVuSans-30"/>
      </g>
     </g>
    </g>
    <g id="ytick_4">
     <g id="line2d_9">
      <g>
       <use style="stroke:#000000;stroke-width:0.8;" x="63" xlink:href="#mdc98d57d6d" y="224.831642"/>
      </g>
     </g>
     <g id="text_10">
      <!-- −20 -->
      <g transform="translate(34.895313 228.630861)scale(0.1 -0.1)">
       <use xlink:href="#DejaVuSans-2212"/>
       <use x="83.789062" xlink:href="#DejaVuSans-32"/>
       <use x="147.412109" xlink:href="#DejaVuSans-30"/>
      </g>
     </g>
    </g>
    <g id="ytick_5">
     <g id="line2d_10">
      <g>
       <use style="stroke:#000000;stroke-width:0.8;" x="63" xlink:href="#mdc98d57d6d" y="172.481872"/>
      </g>
     </g>
     <g id="text_11">
      <!-- 0 -->
      <g transform="translate(49.6375 176.281091)scale(0.1 -0.1)">
       <use xlink:href="#DejaVuSans-30"/>
      </g>
     </g>
    </g>
    <g id="ytick_6">
     <g id="line2d_11">
      <g>
       <use style="stroke:#000000;stroke-width:0.8;" x="63" xlink:href="#mdc98d57d6d" y="120.132102"/>
      </g>
     </g>
     <g id="text_12">
      <!-- 20 -->
      <g transform="translate(43.275 123.931321)scale(0.1 -0.1)">
       <use xlink:href="#DejaVuSans-32"/>
       <use x="63.623047" xlink:href="#DejaVuSans-30"/>
      </g>
     </g>
    </g>
    <g id="ytick_7">
     <g id="line2d_12">
      <g>
       <use style="stroke:#000000;stroke-width:0.8;" x="63" xlink:href="#mdc98d57d6d" y="67.782332"/>
      </g>
     </g>
     <g id="text_13">
      <!-- 40 -->
      <g transform="translate(43.275 71.581551)scale(0.1 -0.1)">
       <use xlink:href="#DejaVuSans-34"/>
       <use x="63.623047" xlink:href="#DejaVuSans-30"/>
      </g>
     </g>
    </g>
    <g id="text_14">
     <!-- voltage [mV] -->
     <defs>
      <path d="M 2.984375 54.6875 
L 12.5 54.6875 
L 29.59375 8.796875 
L 46.6875 54.6875 
L 56.203125 54.6875 
L 35.6875 0 
L 23.484375 0 
z
" id="DejaVuSans-76"/>
      <path d="M 30.609375 48.390625 
Q 23.390625 48.390625 19.1875 42.75 
Q 14.984375 37.109375 14.984375 27.296875 
Q 14.984375 17.484375 19.15625 11.84375 
Q 23.34375 6.203125 30.609375 6.203125 
Q 37.796875 6.203125 41.984375 11.859375 
Q 46.1875 17.53125 46.1875 27.296875 
Q 46.1875 37.015625 41.984375 42.703125 
Q 37.796875 48.390625 30.609375 48.390625 
z
M 30.609375 56 
Q 42.328125 56 49.015625 48.375 
Q 55.71875 40.765625 55.71875 27.296875 
Q 55.71875 13.875 49.015625 6.21875 
Q 42.328125 -1.421875 30.609375 -1.421875 
Q 18.84375 -1.421875 12.171875 6.21875 
Q 5.515625 13.875 5.515625 27.296875 
Q 5.515625 40.765625 12.171875 48.375 
Q 18.84375 56 30.609375 56 
z
" id="DejaVuSans-6f"/>
      <path d="M 9.421875 75.984375 
L 18.40625 75.984375 
L 18.40625 0 
L 9.421875 0 
z
" id="DejaVuSans-6c"/>
      <path d="M 34.28125 27.484375 
Q 23.390625 27.484375 19.1875 25 
Q 14.984375 22.515625 14.984375 16.5 
Q 14.984375 11.71875 18.140625 8.90625 
Q 21.296875 6.109375 26.703125 6.109375 
Q 34.1875 6.109375 38.703125 11.40625 
Q 43.21875 16.703125 43.21875 25.484375 
L 43.21875 27.484375 
z
M 52.203125 31.203125 
L 52.203125 0 
L 43.21875 0 
L 43.21875 8.296875 
Q 40.140625 3.328125 35.546875 0.953125 
Q 30.953125 -1.421875 24.3125 -1.421875 
Q 15.921875 -1.421875 10.953125 3.296875 
Q 6 8.015625 6 15.921875 
Q 6 25.140625 12.171875 29.828125 
Q 18.359375 34.515625 30.609375 34.515625 
L 43.21875 34.515625 
L 43.21875 35.40625 
Q 43.21875 41.609375 39.140625 45 
Q 35.0625 48.390625 27.6875 48.390625 
Q 23 48.390625 18.546875 47.265625 
Q 14.109375 46.140625 10.015625 43.890625 
L 10.015625 52.203125 
Q 14.9375 54.109375 19.578125 55.046875 
Q 24.21875 56 28.609375 56 
Q 40.484375 56 46.34375 49.84375 
Q 52.203125 43.703125 52.203125 31.203125 
z
" id="DejaVuSans-61"/>
      <path d="M 45.40625 27.984375 
Q 45.40625 37.75 41.375 43.109375 
Q 37.359375 48.484375 30.078125 48.484375 
Q 22.859375 48.484375 18.828125 43.109375 
Q 14.796875 37.75 14.796875 27.984375 
Q 14.796875 18.265625 18.828125 12.890625 
Q 22.859375 7.515625 30.078125 7.515625 
Q 37.359375 7.515625 41.375 12.890625 
Q 45.40625 18.265625 45.40625 27.984375 
z
M 54.390625 6.78125 
Q 54.390625 -7.171875 48.1875 -13.984375 
Q 42 -20.796875 29.203125 -20.796875 
Q 24.46875 -20.796875 20.265625 -20.09375 
Q 16.0625 -19.390625 12.109375 -17.921875 
L 12.109375 -9.1875 
Q 16.0625 -11.328125 19.921875 -12.34375 
Q 23.78125 -13.375 27.78125 -13.375 
Q 36.625 -13.375 41.015625 -8.765625 
Q 45.40625 -4.15625 45.40625 5.171875 
L 45.40625 9.625 
Q 42.625 4.78125 38.28125 2.390625 
Q 33.9375 0 27.875 0 
Q 17.828125 0 11.671875 7.65625 
Q 5.515625 15.328125 5.515625 27.984375 
Q 5.515625 40.671875 11.671875 48.328125 
Q 17.828125 56 27.875 56 
Q 33.9375 56 38.28125 53.609375 
Q 42.625 51.21875 45.40625 46.390625 
L 45.40625 54.6875 
L 54.390625 54.6875 
z
" id="DejaVuSans-67"/>
      <path d="M 28.609375 0 
L 0.78125 72.90625 
L 11.078125 72.90625 
L 34.1875 11.53125 
L 57.328125 72.90625 
L 67.578125 72.90625 
L 39.796875 0 
z
" id="DejaVuSans-56"/>
     </defs>
     <g transform="translate(28.815625 250.624062)rotate(-90)scale(0.1 -0.1)">
      <use xlink:href="#DejaVuSans-76"/>
      <use x="59.179688" xlink:href="#DejaVuSans-6f"/>
      <use x="120.361328" xlink:href="#DejaVuSans-6c"/>
      <use x="148.144531" xlink:href="#DejaVuSans-74"/>
      <use x="187.353516" xlink:href="#DejaVuSans-61"/>
      <use x="248.632812" xlink:href="#DejaVuSans-67"/>
      <use x="312.109375" xlink:href="#DejaVuSans-65"/>
      <use x="373.632812" xlink:href="#DejaVuSans-20"/>
      <use x="405.419922" xlink:href="#DejaVuSans-5b"/>
      <use x="444.433594" xlink:href="#DejaVuSans-6d"/>
      <use x="541.845703" xlink:href="#DejaVuSans-56"/>
      <use x="610.253906" xlink:href="#DejaVuSans-5d"/>
     </g>
    </g>
   </g>
   <g id="line2d_13">
    <path clip-path="url(#p27cbc7e85c)" d="M 80.754545 342.618624 
L 81.961855 342.482515 
L 83.772818 342.539576 
L 85.974382 342.558422 
L 151.772727 342.549784 
L 152.314241 298.152468 
L 152.420768 249.654856 
L 152.562805 68.630922 
L 152.678209 93.777134 
L 153.565936 369.031177 
L 153.610323 368.930927 
L 153.8145 367.555961 
L 154.293873 362.815689 
L 154.959668 353.720178 
L 157.42755 314.938945 
L 157.613973 303.84315 
L 157.738255 281.939744 
L 157.835905 219.560282 
L 157.969064 92.923048 
L 158.031205 106.038236 
L 158.883423 368.607929 
L 158.945564 368.424967 
L 159.203005 366.451381 
L 159.717886 360.794464 
L 160.534595 348.90112 
L 161.8218 330.822127 
L 162.514227 320.48488 
L 162.771668 312.985514 
L 162.940336 301.028041 
L 163.064618 273.140795 
L 163.162268 188.980242 
L 163.268795 93.840739 
L 163.322059 103.327041 
L 163.863573 297.875014 
L 164.147645 368.431772 
L 164.183155 368.576258 
L 164.245295 368.395389 
L 164.493859 366.497187 
L 165.008741 360.859902 
L 165.834327 348.843797 
L 167.112655 330.896464 
L 167.813959 320.449544 
L 168.0714 312.940493 
L 168.240068 300.943758 
L 168.36435 272.895275 
L 168.462 188.236745 
L 168.568527 93.917432 
L 168.621791 103.54848 
L 169.172182 301.815643 
L 169.4385 368.34618 
L 169.482886 368.574164 
L 169.545027 368.389369 
L 169.802468 366.407668 
L 170.31735 360.732953 
L 171.151814 348.555612 
L 172.430141 330.654346 
L 173.113691 320.431221 
L 173.371132 312.90411 
L 173.5398 300.848219 
L 173.664082 272.558142 
L 173.761732 187.088688 
L 173.868259 93.934183 
L 173.921523 103.783793 
L 174.480791 305.875368 
L 174.729355 368.237031 
L 174.782618 368.574164 
L 174.844759 368.385181 
L 175.1022 366.400339 
L 175.617082 360.722222 
L 176.451545 348.542786 
L 177.729873 330.643614 
L 178.413423 320.414469 
L 178.670864 312.86825 
L 178.839532 300.751372 
L 178.963814 272.21211 
L 179.061464 185.907023 
L 179.167991 93.951459 
L 179.221255 104.021722 
L 179.7894 310.03796 
L 180.029086 368.249333 
L 180.08235 368.574425 
L 180.144491 368.380731 
L 180.401932 366.393011 
L 180.916814 360.711752 
L 181.751277 348.530484 
L 183.029605 330.633144 
L 183.713155 320.397456 
L 183.970595 312.832129 
L 184.139264 300.653478 
L 184.263545 271.857964 
L 184.361195 184.704575 
L 184.467723 93.975278 
L 184.520986 104.263317 
L 185.098009 314.292164 
L 185.328818 368.261374 
L 185.382082 368.574425 
L 185.444223 368.376543 
L 185.701664 366.38542 
L 186.216545 360.701282 
L 187.051009 348.51792 
L 188.329336 330.622675 
L 189.012886 320.380704 
L 189.270327 312.795746 
L 189.438995 300.554014 
L 189.563277 271.498583 
L 189.660927 183.497337 
L 189.767455 94.004856 
L 189.820718 104.507266 
L 190.406618 318.618349 
L 190.619673 368.127882 
L 190.681814 368.574164 
L 190.743955 368.372094 
L 191.010273 366.296949 
L 191.525155 360.576166 
L 192.368495 348.233137 
L 193.637945 330.497035 
L 194.312618 320.363428 
L 194.570059 312.759363 
L 194.738727 300.454026 
L 194.863009 271.135799 
L 194.969536 168.963575 
L 195.058309 93.991506 
L 195.12045 104.753834 
L 195.715227 322.990602 
L 195.919405 368.143325 
L 195.981545 368.574164 
L 196.043686 368.367644 
L 196.310005 366.289358 
L 196.833764 360.450526 
L 197.703736 347.676921 
L 198.955432 330.256488 
L 199.61235 320.346415 
L 199.869791 312.722456 
L 200.038459 300.352991 
L 200.162741 270.765686 
L 200.269268 167.703752 
L 200.358041 93.962191 
L 200.420182 105.004589 
L 201.023836 327.372016 
L 201.219136 368.157983 
L 201.281277 368.57364 
L 201.343418 368.363194 
L 201.609736 366.281767 
L 202.133495 360.439533 
L 202.994591 347.799943 
L 204.255164 330.245756 
L 204.912082 320.328878 
L 205.169523 312.685026 
L 205.338191 300.250385 
L 205.462473 270.387982 
L 205.569 166.435474 
L 205.657773 93.939942 
L 205.719914 105.257177 
L 206.332445 331.714691 
L 206.518868 368.172641 
L 206.581009 368.573378 
L 206.634273 368.405074 
L 206.873959 366.595081 
L 207.388841 360.999414 
L 208.187795 349.420692 
L 209.510509 330.80904 
L 210.202936 320.49535 
L 210.460377 313.039172 
L 210.629045 301.211003 
L 210.753327 273.845685 
L 210.850977 191.533707 
L 210.957505 93.924761 
L 211.019645 105.510812 
L 211.641055 335.964707 
L 211.827477 368.317912 
L 211.880741 368.572855 
L 211.934005 368.400886 
L 212.182568 366.50818 
L 212.69745 360.875607 
L 213.514159 348.999014 
L 214.810241 330.798308 
L 215.502668 320.478336 
L 215.760109 313.003312 
L 215.928777 301.114941 
L 216.053059 273.507243 
L 216.150709 190.357931 
L 216.257236 93.918479 
L 216.319377 105.763923 
L 216.949664 340.058721 
L 217.127209 368.328382 
L 217.171595 368.573378 
L 217.233736 368.396698 
L 217.4823 366.500851 
L 217.997182 360.865137 
L 218.822768 348.850079 
L 220.101095 330.902222 
L 220.8024 320.461322 
L 221.059841 312.967715 
L 221.228509 301.019141 
L 221.352791 273.167493 
L 221.450441 189.182731 
L 221.556968 93.919002 
L 221.610232 103.363948 
L 222.151745 297.930243 
L 222.426941 368.338328 
L 222.471327 368.57364 
L 222.533468 368.39251 
L 222.782032 366.493522 
L 223.296914 360.854667 
L 224.1225 348.837253 
L 225.418582 330.66246 
L 226.111009 320.259776 
L 226.36845 312.536091 
L 226.537118 299.838131 
L 226.652523 272.825126 
L 226.750173 188.002846 
L 226.8567 93.925022 
L 226.909964 103.60083 
L 227.460355 301.890765 
L 227.726673 368.348013 
L 227.771059 368.574164 
L 227.8332 368.388322 
L 228.090641 366.405836 
L 228.605523 360.730336 
L 229.439986 348.552471 
L 230.718314 330.651729 
L 231.401864 320.427295 
L 231.659305 312.895734 
L 231.827973 300.826232 
L 231.952255 272.480403 
L 232.049905 186.822751 
L 232.156432 93.937848 
L 232.209695 103.837451 
L 232.768964 305.953631 
L 233.017527 368.23991 
L 233.070791 368.574164 
L 233.132932 368.384134 
L 233.390373 366.398507 
L 233.905255 360.719866 
L 234.739718 348.539907 
L 236.018045 330.641259 
L 236.701595 320.410543 
L 236.959036 312.860136 
L 237.127705 300.729385 
L 237.251986 272.132538 
L 237.349636 185.635904 
L 237.456164 93.95617 
L 237.509427 104.076428 
L 238.077573 310.118578 
L 238.317259 368.251951 
L 238.370523 368.574425 
L 238.432664 368.379946 
L 238.690105 366.391178 
L 239.204986 360.709396 
L 240.03945 348.527605 
L 241.317777 330.630789 
L 242.001327 320.393791 
L 242.258768 312.824014 
L 242.427436 300.630968 
L 242.551718 271.77656 
L 242.649368 184.430655 
L 242.755895 93.98156 
L 242.809159 104.318546 
L 243.386182 314.374615 
L 243.616991 368.263991 
L 243.670255 368.574425 
L 243.732395 368.375496 
L 243.989836 366.383849 
L 244.504718 360.698926 
L 245.348059 348.378931 
L 246.617509 330.620057 
L 247.301059 320.376778 
L 247.5585 312.787631 
L 247.727168 300.531242 
L 247.85145 271.416655 
L 247.9491 183.222239 
L 248.055627 94.012708 
L 248.108891 104.563019 
L 248.694791 318.702632 
L 248.907845 368.131546 
L 248.969986 368.574164 
L 249.032127 368.371308 
L 249.298445 366.295378 
L 249.822205 360.458902 
L 250.692177 347.686867 
L 251.943873 330.264864 
L 252.600791 320.359502 
L 252.858232 312.750987 
L 253.0269 300.430992 
L 253.151182 271.052039 
L 253.257709 168.676751 
L 253.346482 93.984177 
L 253.408623 104.810895 
L 254.0034 323.076455 
L 254.207577 368.146728 
L 254.269718 368.573902 
L 254.331859 368.366859 
L 254.598177 366.287787 
L 255.121936 360.447909 
L 255.983032 347.809889 
L 257.22585 330.483948 
L 257.900523 320.342488 
L 258.157964 312.71408 
L 258.326632 300.329695 
L 258.450914 270.680094 
L 258.557441 167.414336 
L 258.646214 93.956432 
L 258.708355 105.062436 
L 259.312009 327.457869 
L 259.507309 368.161386 
L 259.56945 368.57364 
L 259.631591 368.362147 
L 259.897909 366.279935 
L 260.421668 360.437177 
L 261.291641 347.661478 
L 262.525582 330.473216 
L 263.200255 320.324951 
L 263.457695 312.67665 
L 263.626364 300.226828 
L 263.750645 270.301082 
L 263.857173 166.145535 
L 263.945945 93.935754 
L 264.008086 105.315023 
L 264.620618 331.799236 
L 264.807041 368.176044 
L 264.869182 368.573117 
L 264.922445 368.404289 
L 265.171009 366.513938 
L 265.685891 360.883982 
L 266.511477 348.87259 
L 267.807559 330.692038 
L 268.499986 320.307676 
L 268.757427 312.63922 
L 268.926095 300.12396 
L 269.050377 269.922069 
L 269.156905 164.886182 
L 269.245677 93.922667 
L 269.298941 102.946458 
L 269.8227 290.391615 
L 270.133405 368.486216 
L 270.168914 368.572855 
L 270.222177 368.400101 
L 270.470741 366.50661 
L 270.985623 360.873251 
L 271.802332 348.996135 
L 273.098414 330.795952 
L 273.790841 320.47441 
L 274.048282 312.995198 
L 274.21695 301.093216 
L 274.341232 273.429766 
L 274.438882 190.088958 
L 274.545409 93.918217 
L 274.598673 103.18177 
L 275.131309 294.147972 
L 275.424259 368.424443 
L 275.459768 368.573378 
L 275.521909 368.395913 
L 275.770473 366.499281 
L 276.285355 360.862781 
L 277.110941 348.8472 
L 278.389268 330.899867 
L 279.090573 320.457396 
L 279.348014 312.959339 
L 279.516682 300.997154 
L 279.640964 273.089492 
L 279.738614 188.913654 
L 279.845141 93.919526 
L 279.898405 103.41813 
L 280.439918 298.005889 
L 280.715114 368.340422 
L 280.7595 368.573902 
L 280.821641 368.391725 
L 281.079082 366.411595 
L 281.593964 360.73845 
L 282.428427 348.562155 
L 283.706755 330.659843 
L 284.390305 320.440383 
L 284.647745 312.923479 
L 284.816414 300.900831 
L 284.940695 272.746601 
L 285.038345 187.733664 
L 285.144873 93.927378 
L 285.198136 103.65475 
L 285.748527 301.967457 
L 286.014845 368.350107 
L 286.059232 368.574164 
L 286.121373 368.387275 
L 286.378814 366.404266 
L 286.893695 360.72798 
L 287.728159 348.549591 
L 289.006486 330.649373 
L 289.690036 320.423631 
L 289.947477 312.887619 
L 290.116145 300.804246 
L 290.240427 272.401354 
L 290.338077 186.552679 
L 290.444605 93.941512 
L 290.497868 103.891633 
L 291.057136 306.032679 
L 291.3057 368.24279 
L 291.358964 368.574425 
L 291.421105 368.383087 
L 291.678545 366.396937 
L 292.193427 360.71751 
L 293.027891 348.537028 
L 294.315095 330.523995 
L 294.989768 320.406617 
L 295.247209 312.85176 
L 295.415877 300.707137 
L 295.540159 272.05192 
L 295.637809 185.361931 
L 295.744336 93.961405 
L 295.7976 104.131395 
L 296.365745 310.199721 
L 296.605432 368.25483 
L 296.658695 368.574425 
L 296.720836 368.378899 
L 296.978277 366.389608 
L 297.493159 360.70704 
L 298.327623 348.524725 
L 299.60595 330.628433 
L 300.2895 320.389865 
L 300.546941 312.815639 
L 300.715609 300.608196 
L 300.839891 271.694894 
L 300.937541 184.156342 
L 301.044068 93.988104 
L 301.097332 104.373775 
L 301.674355 314.457066 
L 301.905164 368.266609 
L 301.958427 368.574425 
L 302.020568 368.374711 
L 302.286886 366.301137 
L 302.810645 360.467017 
L 303.671741 347.8324 
L 304.914559 330.503055 
L 305.589232 320.372851 
L 305.846673 312.779255 
L 306.015341 300.508731 
L 306.139623 271.334466 
L 306.24615 169.645693 
L 306.334923 94.010091 
L 306.397064 104.619033 
L 306.982964 318.786915 
L 307.196018 368.134949 
L 307.258159 368.574164 
L 307.3203 368.370261 
L 307.586618 366.293546 
L 308.110377 360.456285 
L 308.971473 347.819836 
L 310.214291 330.492324 
L 310.888964 320.355838 
L 311.146405 312.742611 
L 311.315073 300.40822 
L 311.439355 270.968018 
L 311.545882 168.390947 
L 311.634655 93.977372 
L 311.696795 104.867695 
L 312.291573 323.161785 
L 312.49575 368.150131 
L 312.557891 368.573902 
L 312.620032 368.365812 
L 312.88635 366.285955 
L 313.410109 360.445553 
L 314.280082 347.671162 
L 315.531777 330.251515 
L 316.188695 320.3383 
L 316.446136 312.705442 
L 316.614805 300.306399 
L 316.739086 270.594764 
L 316.845614 167.12602 
L 316.934386 93.951197 
L 316.996527 105.119759 
L 317.600182 327.543461 
L 317.795482 368.164788 
L 317.857623 368.57364 
L 317.910886 368.40743 
L 318.150573 366.599007 
L 318.665455 361.005172 
L 319.464409 349.427497 
L 320.787123 330.81506 
L 321.488427 320.321025 
L 321.745868 312.668012 
L 321.914536 300.20327 
L 322.038818 270.214443 
L 322.145345 165.856983 
L 322.234118 93.932089 
L 322.296259 105.37287 
L 322.908791 331.883519 
L 323.095214 368.179446 
L 323.157355 368.573117 
L 323.210618 368.403242 
L 323.459182 366.512368 
L 323.974064 360.881365 
L 324.790773 349.00582 
L 326.095732 330.68942 
L 326.779282 320.487497 
L 327.036723 313.022944 
L 327.205391 301.167291 
L 327.329673 273.691515 
L 327.427323 190.997646 
L 327.53385 93.920834 
L 327.595991 105.626243 
L 328.2174 336.127515 
L 328.403823 368.322623 
L 328.457086 368.572593 
L 328.51035 368.399054 
L 328.758914 366.504777 
L 329.273795 360.870895 
L 329.318182 360.297403 
L 329.335936 361.196249 
L 329.531236 365.18216 
L 329.620009 365.369834 
L 329.664395 365.312511 
L 329.815309 364.706301 
L 330.214786 361.892239 
L 332.176664 347.150282 
L 332.869091 343.931557 
L 333.428359 342.277827 
L 333.889977 341.535508 
L 334.262823 341.308833 
L 334.617914 341.348881 
L 335.097286 341.663764 
L 336.464386 342.690343 
L 337.059164 342.816768 
L 337.849241 342.75264 
L 339.891014 342.503717 
L 342.057068 342.550831 
L 435.845455 342.549784 
L 435.845455 342.549784 
" style="fill:none;stroke:#1f77b4;stroke-linecap:square;stroke-width:1.5;"/>
   </g>
   <g id="line2d_14">
    <path clip-path="url(#p27cbc7e85c)" d="M 80.754545 342.618624 
L 81.251673 344.474751 
L 81.686659 345.369484 
L 82.04175 345.660558 
L 82.387964 345.667142 
L 82.849582 345.42197 
L 84.846968 344.113366 
L 85.583782 344.035956 
L 86.764459 344.179283 
L 88.442264 344.323738 
L 94.0527 344.277588 
L 137.240632 344.276794 
L 151.772727 344.276794 
L 152.323118 298.416469 
L 152.429645 249.538664 
L 152.571682 66.96 
L 152.687086 92.205836 
L 153.583691 369.36 
L 153.6192 369.293073 
L 153.796745 368.227103 
L 154.258364 364.035088 
L 154.862018 356.287756 
L 157.303268 319.296958 
L 157.534077 310.9202 
L 157.693868 295.660529 
L 157.809273 257.201607 
L 157.977941 92.819779 
L 158.102223 125.423982 
L 158.839036 368.425382 
L 158.901177 368.926826 
L 158.963318 368.764766 
L 159.203005 367.0549 
L 159.700132 361.918927 
L 160.419191 351.815722 
L 162.168014 326.778854 
L 162.611877 318.784702 
L 162.842686 310.211425 
L 162.9936 295.638922 
L 163.109005 258.056123 
L 163.28655 93.829054 
L 163.410832 129.212032 
L 164.129891 368.221396 
L 164.200909 368.895165 
L 164.26305 368.727727 
L 164.511614 366.932578 
L 165.017618 361.634474 
L 165.754432 351.188275 
L 167.378973 327.973437 
L 167.8761 319.562668 
L 168.115786 311.508527 
L 168.275577 297.969826 
L 168.390982 266.626904 
L 168.497509 155.660987 
L 168.577405 93.956445 
L 168.639545 104.788513 
L 169.2432 328.559196 
L 169.4385 368.457928 
L 169.500641 368.893458 
L 169.562782 368.713262 
L 169.820223 366.832028 
L 170.326227 361.489942 
L 171.071918 350.872556 
L 172.66095 328.18171 
L 173.175832 319.500239 
L 173.415518 311.373558 
L 173.575309 297.59459 
L 173.690714 265.304588 
L 173.797241 151.829697 
L 173.877136 93.887847 
L 173.939277 105.588526 
L 174.569564 341.183351 
L 174.747109 368.630486 
L 174.800373 368.893012 
L 174.862514 368.700165 
L 175.119955 366.809266 
L 175.625959 361.45731 
L 176.380527 350.69584 
L 177.951805 328.268165 
L 178.466686 319.64567 
L 178.706373 311.692047 
L 178.866164 298.48195 
L 178.981568 268.414579 
L 179.088095 161.151749 
L 179.176868 93.886122 
L 179.230132 103.697861 
L 179.7894 307.201251 
L 180.037964 368.543752 
L 180.100105 368.89177 
L 180.153368 368.73071 
L 180.393055 367.014843 
L 180.890182 361.861687 
L 181.609241 351.744198 
L 183.322555 327.236722 
L 183.784173 319.164753 
L 184.023859 310.618486 
L 184.18365 295.409112 
L 184.299055 257.256876 
L 184.4766 93.950169 
L 184.600882 129.779536 
L 185.319941 368.254168 
L 185.390959 368.893157 
L 185.4531 368.718193 
L 185.701664 366.917105 
L 186.207668 361.612216 
L 186.944482 351.160592 
L 188.569023 327.949328 
L 189.06615 319.524418 
L 189.305836 311.426976 
L 189.465627 297.744659 
L 189.581032 265.836504 
L 189.687559 153.355669 
L 189.767455 93.908776 
L 189.829595 105.269119 
L 190.451005 337.052284 
L 190.637427 368.617222 
L 190.690691 368.893221 
L 190.752832 368.705335 
L 191.010273 366.818241 
L 191.516277 361.470173 
L 192.270845 350.711771 
L 193.842123 328.282505 
L 194.357005 319.669612 
L 194.596691 311.744082 
L 194.756482 298.624019 
L 194.871886 268.903423 
L 194.978414 162.706358 
L 195.067186 93.879236 
L 195.12045 103.395264 
L 195.670841 303.011715 
L 195.937159 368.649573 
L 195.990423 368.892315 
L 196.052564 368.69216 
L 196.318882 366.718304 
L 196.824886 361.327218 
L 197.588332 350.398759 
L 199.1241 328.491149 
L 199.647859 319.812919 
L 199.896423 311.612457 
L 200.056214 298.26226 
L 200.171618 267.653973 
L 200.278145 158.777252 
L 200.366918 93.91664 
L 200.420182 104.166109 
L 200.997205 315.65189 
L 201.219136 368.41971 
L 201.281277 368.892848 
L 201.343418 368.723167 
L 201.591982 366.925914 
L 202.097986 361.624903 
L 202.8348 351.176385 
L 204.459341 327.963665 
L 204.956468 319.548422 
L 205.196155 311.479746 
L 205.355945 297.89241 
L 205.47135 266.35825 
L 205.577877 154.873682 
L 205.657773 93.941102 
L 205.719914 104.956022 
L 206.323568 328.806375 
L 206.518868 368.467414 
L 206.581009 368.893289 
L 206.64315 368.710385 
L 206.900591 366.827072 
L 207.406595 361.482837 
L 208.152286 350.863754 
L 209.741318 328.173823 
L 210.2562 319.487069 
L 210.495886 311.344628 
L 210.655677 297.513419 
L 210.771082 265.016404 
L 210.877609 151.017852 
L 210.957505 93.882438 
L 211.019645 105.761127 
L 211.880741 368.892771 
L 211.951759 368.651106 
L 212.244709 366.412288 
L 212.768468 360.666794 
L 213.594055 348.63886 
L 215.005541 328.627076 
L 215.538177 319.836112 
L 215.786741 311.663941 
L 215.946532 298.405055 
L 216.061936 268.149059 
L 216.168464 160.317822 
L 216.257236 93.89425 
L 216.3105 103.861354 
L 216.878645 311.281711 
L 217.118332 368.552094 
L 217.171595 368.892422 
L 217.233736 368.72808 
L 217.4823 366.934672 
L 217.988305 361.637522 
L 218.725118 351.192102 
L 220.349659 327.977926 
L 220.846786 319.572324 
L 221.086473 311.532111 
L 221.246264 298.038766 
L 221.361668 266.87407 
L 221.468195 156.409617 
L 221.556968 93.972259 
L 221.610232 104.64251 
L 222.205009 324.344163 
L 222.409186 368.449123 
L 222.471327 368.893256 
L 222.533468 368.715469 
L 222.782032 366.912315 
L 223.288036 361.60532 
L 224.02485 351.152011 
L 225.649391 327.941518 
L 226.146518 319.511327 
L 226.386205 311.398173 
L 226.545995 297.663917 
L 226.6614 265.550982 
L 226.767927 152.534165 
L 226.847823 93.896509 
L 226.909964 105.440754 
L 227.531373 337.290961 
L 227.708918 368.494551 
L 227.771059 368.893127 
L 227.8332 368.70255 
L 228.090641 366.813397 
L 228.596645 361.463231 
L 229.351214 350.703172 
L 230.922491 328.27477 
L 231.437373 319.656706 
L 231.677059 311.716046 
L 231.83685 298.54751 
L 231.952255 268.640407 
L 232.058782 161.86494 
L 232.147555 93.881282 
L 232.200818 103.558815 
L 232.760086 306.998743 
L 233.00865 368.536437 
L 233.070791 368.892032 
L 233.124055 368.732941 
L 233.363741 367.018846 
L 233.860868 361.867449 
L 234.579927 351.751428 
L 236.302118 327.117118 
L 236.763736 318.95988 
L 236.994545 310.644571 
L 237.154336 295.486848 
L 237.269741 257.552383 
L 237.447286 93.933617 
L 237.571568 129.595518 
L 238.290627 368.242944 
L 238.361645 368.893033 
L 238.423786 368.720482 
L 238.67235 366.92115 
L 239.178355 361.618041 
L 239.915168 351.167842 
L 241.539709 327.955917 
L 242.036836 319.535448 
L 242.276523 311.451226 
L 242.436314 297.812576 
L 242.551718 266.076412 
L 242.658245 154.049095 
L 242.738141 93.921647 
L 242.800282 105.125595 
L 243.412814 332.999954 
L 243.599236 368.477087 
L 243.661377 368.893276 
L 243.723518 368.707654 
L 243.980959 366.822283 
L 244.486964 361.475969 
L 245.241532 350.718952 
L 246.812809 328.288969 
L 247.327691 319.680394 
L 247.567377 311.7675 
L 247.727168 298.687886 
L 247.842573 269.122244 
L 247.9491 163.411045 
L 248.037873 93.879844 
L 248.091136 103.259227 
L 248.63265 299.160661 
L 248.907845 368.643962 
L 248.961109 368.892526 
L 249.02325 368.694524 
L 249.289568 366.722383 
L 249.795573 361.333041 
L 250.559018 350.405935 
L 252.094786 328.49757 
L 252.618545 319.823546 
L 252.867109 311.636082 
L 253.0269 298.327843 
L 253.142305 267.881504 
L 253.248832 159.48106 
L 253.337605 93.905059 
L 253.390868 104.026681 
L 253.967891 315.443427 
L 254.189823 368.410822 
L 254.251964 368.892663 
L 254.314105 368.725409 
L 254.562668 366.929905 
L 255.068673 361.630654 
L 255.805486 351.183547 
L 257.430027 327.970163 
L 257.927155 319.559316 
L 258.166841 311.503637 
L 258.326632 297.959224 
L 258.442036 266.59397 
L 258.548564 155.572661 
L 258.628459 93.959782 
L 258.6906 104.812896 
L 259.294255 328.595502 
L 259.489555 368.459136 
L 259.551695 368.893285 
L 259.613836 368.712702 
L 259.871277 366.83114 
L 260.377282 361.488672 
L 261.122973 350.870984 
L 262.712005 328.180358 
L 263.226886 319.498111 
L 263.466573 311.369029 
L 263.626364 297.582073 
L 263.741768 265.260432 
L 263.848295 151.704892 
L 263.928191 93.887053 
L 263.990332 105.615366 
L 264.629495 344.716753 
L 264.798164 368.631546 
L 264.851427 368.89297 
L 264.913568 368.699715 
L 265.179886 366.731346 
L 265.685891 361.345838 
L 266.449336 350.421712 
L 267.993982 328.389487 
L 268.517741 319.643642 
L 268.757427 311.687648 
L 268.917218 298.469944 
L 269.032623 268.373228 
L 269.13915 161.021762 
L 269.227923 93.887242 
L 269.281186 103.723286 
L 269.840455 307.238223 
L 270.089018 368.545063 
L 270.151159 368.891716 
L 270.204423 368.730301 
L 270.444109 367.014113 
L 270.941236 361.860636 
L 271.660295 351.742879 
L 273.373609 327.235497 
L 273.835227 319.162672 
L 274.074914 310.613719 
L 274.234705 295.394876 
L 274.350109 257.202601 
L 274.527655 93.953389 
L 274.643059 126.372167 
L 275.370995 368.256218 
L 275.442014 368.893176 
L 275.504155 368.71777 
L 275.752718 366.91636 
L 276.258723 361.611143 
L 276.995536 351.159257 
L 278.620077 327.948112 
L 279.117205 319.52238 
L 279.356891 311.422493 
L 279.516682 297.732094 
L 279.632086 265.792098 
L 279.738614 153.22773 
L 279.818509 93.906685 
L 279.88065 105.29574 
L 280.502059 337.089337 
L 280.688482 368.618346 
L 280.741745 368.893208 
L 280.803886 368.704904 
L 281.061327 366.817489 
L 281.567332 361.469096 
L 282.3219 350.710436 
L 283.893177 328.281304 
L 284.408059 319.667607 
L 284.647745 311.739728 
L 284.807536 298.612137 
L 284.922941 268.862682 
L 285.029468 162.575718 
L 285.118241 93.87936 
L 285.171505 103.420602 
L 285.721895 303.048008 
L 285.988214 368.650606 
L 286.041477 368.892273 
L 286.103618 368.69172 
L 286.369936 366.717545 
L 286.875941 361.326135 
L 287.639386 350.397425 
L 289.175155 328.489955 
L 289.698914 319.810944 
L 289.947477 311.608065 
L 290.107268 298.250062 
L 290.222673 267.611641 
L 290.3292 158.647137 
L 290.417973 93.919057 
L 290.471236 104.191982 
L 291.048259 315.690533 
L 291.270191 368.421348 
L 291.332332 368.892879 
L 291.394473 368.72275 
L 291.643036 366.925173 
L 292.149041 361.623836 
L 292.885855 351.175057 
L 294.510395 327.96246 
L 295.007523 319.546403 
L 295.247209 311.475306 
L 295.407 297.879983 
L 295.522405 266.314391 
L 295.628932 154.744648 
L 295.708827 93.937914 
L 295.770968 104.982523 
L 296.374623 328.845338 
L 296.569923 368.468933 
L 296.632064 368.893287 
L 296.694205 368.709957 
L 296.951645 366.826322 
L 297.45765 361.48176 
L 298.212218 350.726128 
L 299.783495 328.295436 
L 300.298377 319.691161 
L 300.546941 311.340118 
L 300.706732 297.500725 
L 300.822136 264.971263 
L 300.928664 150.891796 
L 301.008559 93.881968 
L 301.0707 105.787962 
L 301.931795 368.892731 
L 302.002814 368.650638 
L 302.295764 366.411506 
L 302.819523 360.665682 
L 303.645109 348.637525 
L 305.056595 328.625887 
L 305.589232 319.834149 
L 305.837795 311.659594 
L 305.997586 298.393032 
L 306.112991 268.107429 
L 306.219518 160.187245 
L 306.308291 93.895749 
L 306.361555 103.887056 
L 306.9297 311.319683 
L 307.169386 368.553381 
L 307.22265 368.892461 
L 307.284791 368.727665 
L 307.533355 366.93393 
L 308.039359 361.636453 
L 308.776173 351.190771 
L 310.400714 327.976718 
L 310.897841 319.5703 
L 311.137527 311.527682 
L 311.297318 298.026398 
L 311.412723 266.830644 
L 311.51925 156.279648 
L 311.608023 93.976094 
L 311.661286 104.668932 
L 312.256064 324.383668 
L 312.460241 368.450696 
L 312.522382 368.893264 
L 312.584523 368.715039 
L 312.833086 366.911563 
L 313.339091 361.604237 
L 314.075905 351.150664 
L 315.700445 327.940293 
L 316.197573 319.509273 
L 316.437259 311.393654 
L 316.59705 297.651246 
L 316.712455 265.506128 
L 316.818982 152.405332 
L 316.898877 93.894829 
L 316.961018 105.467814 
L 317.591305 341.024484 
L 317.76885 368.625562 
L 317.822114 368.893109 
L 317.884255 368.702112 
L 318.141695 366.812636 
L 318.6477 361.462139 
L 319.402268 350.701821 
L 320.973545 328.273554 
L 321.488427 319.654678 
L 321.728114 311.711642 
L 321.887905 298.535487 
L 322.003309 268.599012 
L 322.109836 161.733267 
L 322.198609 93.881978 
L 322.251873 103.584461 
L 322.811141 307.036164 
L 323.059705 368.537796 
L 323.121845 368.891985 
L 323.175109 368.732528 
L 323.414795 367.018105 
L 323.911923 361.866382 
L 324.630982 351.750089 
L 326.353173 327.115871 
L 326.814791 318.95773 
L 327.0456 310.639749 
L 327.205391 295.472484 
L 327.320795 257.497805 
L 327.498341 93.936531 
L 327.622623 129.629461 
L 328.341682 368.245026 
L 328.4127 368.893059 
L 328.474841 368.720061 
L 328.723405 366.920404 
L 329.229409 361.616968 
L 329.318182 360.497765 
L 329.335936 361.408975 
L 329.540114 365.872453 
L 329.664395 366.216835 
L 329.699905 366.186794 
L 329.833064 365.79269 
L 330.161523 363.917213 
L 331.182409 356.306575 
L 332.194418 349.596846 
L 332.931232 346.086439 
L 333.526009 344.216774 
L 334.014259 343.325176 
L 334.413736 343.006024 
L 334.777705 342.986504 
L 335.221568 343.209862 
L 337.2012 344.491245 
L 337.938014 344.530567 
L 339.500414 344.310078 
L 341.036182 344.230267 
L 358.462268 344.276799 
L 435.845455 344.276794 
L 435.845455 344.276794 
" style="fill:none;stroke:#ff0000;stroke-linecap:square;stroke-width:1.5;"/>
   </g>
   <g id="patch_3">
    <path d="M 63 384.48 
L 63 51.84 
" style="fill:none;stroke:#000000;stroke-linecap:square;stroke-linejoin:miter;stroke-width:0.8;"/>
   </g>
   <g id="patch_4">
    <path d="M 453.6 384.48 
L 453.6 51.84 
" style="fill:none;stroke:#000000;stroke-linecap:square;stroke-linejoin:miter;stroke-width:0.8;"/>
   </g>
   <g id="patch_5">
    <path d="M 63 384.48 
L 453.6 384.48 
" style="fill:none;stroke:#000000;stroke-linecap:square;stroke-linejoin:miter;stroke-width:0.8;"/>
   </g>
   <g id="patch_6">
    <path d="M 63 51.84 
L 453.6 51.84 
" style="fill:none;stroke:#000000;stroke-linecap:square;stroke-linejoin:miter;stroke-width:0.8;"/>
   </g>
   <g id="legend_1">
    <g id="patch_7">
     <path d="M 383.460938 89.19625 
L 446.6 89.19625 
Q 448.6 89.19625 448.6 87.19625 
L 448.6 58.84 
Q 448.6 56.84 446.6 56.84 
L 383.460938 56.84 
Q 381.460938 56.84 381.460938 58.84 
L 381.460938 87.19625 
Q 381.460938 89.19625 383.460938 89.19625 
z
" style="fill:#ffffff;opacity:0.8;stroke:#cccccc;stroke-linejoin:miter;"/>
    </g>
    <g id="line2d_15">
     <path d="M 385.460938 64.938437 
L 405.460938 64.938437 
" style="fill:none;stroke:#1f77b4;stroke-linecap:square;stroke-width:1.5;"/>
    </g>
    <g id="line2d_16"/>
    <g id="text_15">
     <!-- target -->
     <defs>
      <path d="M 41.109375 46.296875 
Q 39.59375 47.171875 37.8125 47.578125 
Q 36.03125 48 33.890625 48 
Q 26.265625 48 22.1875 43.046875 
Q 18.109375 38.09375 18.109375 28.8125 
L 18.109375 0 
L 9.078125 0 
L 9.078125 54.6875 
L 18.109375 54.6875 
L 18.109375 46.1875 
Q 20.953125 51.171875 25.484375 53.578125 
Q 30.03125 56 36.53125 56 
Q 37.453125 56 38.578125 55.875 
Q 39.703125 55.765625 41.0625 55.515625 
z
" id="DejaVuSans-72"/>
     </defs>
     <g transform="translate(413.460938 68.438437)scale(0.1 -0.1)">
      <use xlink:href="#DejaVuSans-74"/>
      <use x="39.208984" xlink:href="#DejaVuSans-61"/>
      <use x="100.488281" xlink:href="#DejaVuSans-72"/>
      <use x="141.585938" xlink:href="#DejaVuSans-67"/>
      <use x="205.0625" xlink:href="#DejaVuSans-65"/>
      <use x="266.585938" xlink:href="#DejaVuSans-74"/>
     </g>
    </g>
    <g id="line2d_17">
     <path d="M 385.460938 79.616562 
L 405.460938 79.616562 
" style="fill:none;stroke:#ff0000;stroke-linecap:square;stroke-width:1.5;"/>
    </g>
    <g id="line2d_18"/>
    <g id="text_16">
     <!-- model -->
     <defs>
      <path d="M 45.40625 46.390625 
L 45.40625 75.984375 
L 54.390625 75.984375 
L 54.390625 0 
L 45.40625 0 
L 45.40625 8.203125 
Q 42.578125 3.328125 38.25 0.953125 
Q 33.9375 -1.421875 27.875 -1.421875 
Q 17.96875 -1.421875 11.734375 6.484375 
Q 5.515625 14.40625 5.515625 27.296875 
Q 5.515625 40.1875 11.734375 48.09375 
Q 17.96875 56 27.875 56 
Q 33.9375 56 38.25 53.625 
Q 42.578125 51.265625 45.40625 46.390625 
z
M 14.796875 27.296875 
Q 14.796875 17.390625 18.875 11.75 
Q 22.953125 6.109375 30.078125 6.109375 
Q 37.203125 6.109375 41.296875 11.75 
Q 45.40625 17.390625 45.40625 27.296875 
Q 45.40625 37.203125 41.296875 42.84375 
Q 37.203125 48.484375 30.078125 48.484375 
Q 22.953125 48.484375 18.875 42.84375 
Q 14.796875 37.203125 14.796875 27.296875 
z
" id="DejaVuSans-64"/>
     </defs>
     <g transform="translate(413.460938 83.116562)scale(0.1 -0.1)">
      <use xlink:href="#DejaVuSans-6d"/>
      <use x="97.412109" xlink:href="#DejaVuSans-6f"/>
      <use x="158.59375" xlink:href="#DejaVuSans-64"/>
      <use x="222.070312" xlink:href="#DejaVuSans-65"/>
      <use x="283.59375" xlink:href="#DejaVuSans-6c"/>
     </g>
    </g>
   </g>
  </g>
 </g>
 <defs>
  <clipPath id="p27cbc7e85c">
   <rect height="332.64" width="390.6" x="63" y="51.84"/>
  </clipPath>
 </defs>
</svg>
