<?xml version="1.0" encoding="utf-8" standalone="no"?>
<!DOCTYPE svg PUBLIC "-//W3C//DTD SVG 1.1//EN"
  "http://www.w3.org/Graphics/SVG/1.1/DTD/svg11.dtd">
<!-- Created with matplotlib (http://matplotlib.org/) -->
<svg height="432pt" version="1.1" viewBox="0 0 504 432" width="504pt" xmlns="http://www.w3.org/2000/svg" xmlns:xlink="http://www.w3.org/1999/xlink">
 <defs>
  <style type="text/css">
*{stroke-linecap:butt;stroke-linejoin:round;}
  </style>
 </defs>
 <g id="figure_1">
  <g id="patch_1">
   <path d="M 0 432 
L 504 432 
L 504 0 
L 0 0 
z
" style="fill:#ffffff;"/>
  </g>
  <g id="axes_1">
   <g id="patch_2">
    <path d="M 63 384.48 
L 453.6 384.48 
L 453.6 51.84 
L 63 51.84 
z
" style="fill:#ffffff;"/>
   </g>
   <g id="matplotlib.axis_1">
    <g id="xtick_1">
     <g id="line2d_1">
      <defs>
       <path d="M 0 0 
L 0 3.5 
" id="mddfa81dc7c" style="stroke:#000000;stroke-width:0.8;"/>
      </defs>
      <g>
       <use style="stroke:#000000;stroke-width:0.8;" x="80.754545" xlink:href="#mddfa81dc7c" y="384.48"/>
      </g>
     </g>
     <g id="text_1">
      <!-- 0 -->
      <defs>
       <path d="M 31.78125 66.40625 
Q 24.171875 66.40625 20.328125 58.90625 
Q 16.5 51.421875 16.5 36.375 
Q 16.5 21.390625 20.328125 13.890625 
Q 24.171875 6.390625 31.78125 6.390625 
Q 39.453125 6.390625 43.28125 13.890625 
Q 47.125 21.390625 47.125 36.375 
Q 47.125 51.421875 43.28125 58.90625 
Q 39.453125 66.40625 31.78125 66.40625 
z
M 31.78125 74.21875 
Q 44.046875 74.21875 50.515625 64.515625 
Q 56.984375 54.828125 56.984375 36.375 
Q 56.984375 17.96875 50.515625 8.265625 
Q 44.046875 -1.421875 31.78125 -1.421875 
Q 19.53125 -1.421875 13.0625 8.265625 
Q 6.59375 17.96875 6.59375 36.375 
Q 6.59375 54.828125 13.0625 64.515625 
Q 19.53125 74.21875 31.78125 74.21875 
z
" id="DejaVuSans-30"/>
      </defs>
      <g transform="translate(77.573295 399.078438)scale(0.1 -0.1)">
       <use xlink:href="#DejaVuSans-30"/>
      </g>
     </g>
    </g>
    <g id="xtick_2">
     <g id="line2d_2">
      <g>
       <use style="stroke:#000000;stroke-width:0.8;" x="151.772727" xlink:href="#mddfa81dc7c" y="384.48"/>
      </g>
     </g>
     <g id="text_2">
      <!-- 200 -->
      <defs>
       <path d="M 19.1875 8.296875 
L 53.609375 8.296875 
L 53.609375 0 
L 7.328125 0 
L 7.328125 8.296875 
Q 12.9375 14.109375 22.625 23.890625 
Q 32.328125 33.6875 34.8125 36.53125 
Q 39.546875 41.84375 41.421875 45.53125 
Q 43.3125 49.21875 43.3125 52.78125 
Q 43.3125 58.59375 39.234375 62.25 
Q 35.15625 65.921875 28.609375 65.921875 
Q 23.96875 65.921875 18.8125 64.3125 
Q 13.671875 62.703125 7.8125 59.421875 
L 7.8125 69.390625 
Q 13.765625 71.78125 18.9375 73 
Q 24.125 74.21875 28.421875 74.21875 
Q 39.75 74.21875 46.484375 68.546875 
Q 53.21875 62.890625 53.21875 53.421875 
Q 53.21875 48.921875 51.53125 44.890625 
Q 49.859375 40.875 45.40625 35.40625 
Q 44.1875 33.984375 37.640625 27.21875 
Q 31.109375 20.453125 19.1875 8.296875 
z
" id="DejaVuSans-32"/>
      </defs>
      <g transform="translate(142.228977 399.078438)scale(0.1 -0.1)">
       <use xlink:href="#DejaVuSans-32"/>
       <use x="63.623047" xlink:href="#DejaVuSans-30"/>
       <use x="127.246094" xlink:href="#DejaVuSans-30"/>
      </g>
     </g>
    </g>
    <g id="xtick_3">
     <g id="line2d_3">
      <g>
       <use style="stroke:#000000;stroke-width:0.8;" x="222.790909" xlink:href="#mddfa81dc7c" y="384.48"/>
      </g>
     </g>
     <g id="text_3">
      <!-- 400 -->
      <defs>
       <path d="M 37.796875 64.3125 
L 12.890625 25.390625 
L 37.796875 25.390625 
z
M 35.203125 72.90625 
L 47.609375 72.90625 
L 47.609375 25.390625 
L 58.015625 25.390625 
L 58.015625 17.1875 
L 47.609375 17.1875 
L 47.609375 0 
L 37.796875 0 
L 37.796875 17.1875 
L 4.890625 17.1875 
L 4.890625 26.703125 
z
" id="DejaVuSans-34"/>
      </defs>
      <g transform="translate(213.247159 399.078438)scale(0.1 -0.1)">
       <use xlink:href="#DejaVuSans-34"/>
       <use x="63.623047" xlink:href="#DejaVuSans-30"/>
       <use x="127.246094" xlink:href="#DejaVuSans-30"/>
      </g>
     </g>
    </g>
    <g id="xtick_4">
     <g id="line2d_4">
      <g>
       <use style="stroke:#000000;stroke-width:0.8;" x="293.809091" xlink:href="#mddfa81dc7c" y="384.48"/>
      </g>
     </g>
     <g id="text_4">
      <!-- 600 -->
      <defs>
       <path d="M 33.015625 40.375 
Q 26.375 40.375 22.484375 35.828125 
Q 18.609375 31.296875 18.609375 23.390625 
Q 18.609375 15.53125 22.484375 10.953125 
Q 26.375 6.390625 33.015625 6.390625 
Q 39.65625 6.390625 43.53125 10.953125 
Q 47.40625 15.53125 47.40625 23.390625 
Q 47.40625 31.296875 43.53125 35.828125 
Q 39.65625 40.375 33.015625 40.375 
z
M 52.59375 71.296875 
L 52.59375 62.3125 
Q 48.875 64.0625 45.09375 64.984375 
Q 41.3125 65.921875 37.59375 65.921875 
Q 27.828125 65.921875 22.671875 59.328125 
Q 17.53125 52.734375 16.796875 39.40625 
Q 19.671875 43.65625 24.015625 45.921875 
Q 28.375 48.1875 33.59375 48.1875 
Q 44.578125 48.1875 50.953125 41.515625 
Q 57.328125 34.859375 57.328125 23.390625 
Q 57.328125 12.15625 50.6875 5.359375 
Q 44.046875 -1.421875 33.015625 -1.421875 
Q 20.359375 -1.421875 13.671875 8.265625 
Q 6.984375 17.96875 6.984375 36.375 
Q 6.984375 53.65625 15.1875 63.9375 
Q 23.390625 74.21875 37.203125 74.21875 
Q 40.921875 74.21875 44.703125 73.484375 
Q 48.484375 72.75 52.59375 71.296875 
z
" id="DejaVuSans-36"/>
      </defs>
      <g transform="translate(284.265341 399.078438)scale(0.1 -0.1)">
       <use xlink:href="#DejaVuSans-36"/>
       <use x="63.623047" xlink:href="#DejaVuSans-30"/>
       <use x="127.246094" xlink:href="#DejaVuSans-30"/>
      </g>
     </g>
    </g>
    <g id="xtick_5">
     <g id="line2d_5">
      <g>
       <use style="stroke:#000000;stroke-width:0.8;" x="364.827273" xlink:href="#mddfa81dc7c" y="384.48"/>
      </g>
     </g>
     <g id="text_5">
      <!-- 800 -->
      <defs>
       <path d="M 31.78125 34.625 
Q 24.75 34.625 20.71875 30.859375 
Q 16.703125 27.09375 16.703125 20.515625 
Q 16.703125 13.921875 20.71875 10.15625 
Q 24.75 6.390625 31.78125 6.390625 
Q 38.8125 6.390625 42.859375 10.171875 
Q 46.921875 13.96875 46.921875 20.515625 
Q 46.921875 27.09375 42.890625 30.859375 
Q 38.875 34.625 31.78125 34.625 
z
M 21.921875 38.8125 
Q 15.578125 40.375 12.03125 44.71875 
Q 8.5 49.078125 8.5 55.328125 
Q 8.5 64.0625 14.71875 69.140625 
Q 20.953125 74.21875 31.78125 74.21875 
Q 42.671875 74.21875 48.875 69.140625 
Q 55.078125 64.0625 55.078125 55.328125 
Q 55.078125 49.078125 51.53125 44.71875 
Q 48 40.375 41.703125 38.8125 
Q 48.828125 37.15625 52.796875 32.3125 
Q 56.78125 27.484375 56.78125 20.515625 
Q 56.78125 9.90625 50.3125 4.234375 
Q 43.84375 -1.421875 31.78125 -1.421875 
Q 19.734375 -1.421875 13.25 4.234375 
Q 6.78125 9.90625 6.78125 20.515625 
Q 6.78125 27.484375 10.78125 32.3125 
Q 14.796875 37.15625 21.921875 38.8125 
z
M 18.3125 54.390625 
Q 18.3125 48.734375 21.84375 45.5625 
Q 25.390625 42.390625 31.78125 42.390625 
Q 38.140625 42.390625 41.71875 45.5625 
Q 45.3125 48.734375 45.3125 54.390625 
Q 45.3125 60.0625 41.71875 63.234375 
Q 38.140625 66.40625 31.78125 66.40625 
Q 25.390625 66.40625 21.84375 63.234375 
Q 18.3125 60.0625 18.3125 54.390625 
z
" id="DejaVuSans-38"/>
      </defs>
      <g transform="translate(355.283523 399.078438)scale(0.1 -0.1)">
       <use xlink:href="#DejaVuSans-38"/>
       <use x="63.623047" xlink:href="#DejaVuSans-30"/>
       <use x="127.246094" xlink:href="#DejaVuSans-30"/>
      </g>
     </g>
    </g>
    <g id="text_6">
     <!-- time [ms] -->
     <defs>
      <path d="M 18.3125 70.21875 
L 18.3125 54.6875 
L 36.8125 54.6875 
L 36.8125 47.703125 
L 18.3125 47.703125 
L 18.3125 18.015625 
Q 18.3125 11.328125 20.140625 9.421875 
Q 21.96875 7.515625 27.59375 7.515625 
L 36.8125 7.515625 
L 36.8125 0 
L 27.59375 0 
Q 17.1875 0 13.234375 3.875 
Q 9.28125 7.765625 9.28125 18.015625 
L 9.28125 47.703125 
L 2.6875 47.703125 
L 2.6875 54.6875 
L 9.28125 54.6875 
L 9.28125 70.21875 
z
" id="DejaVuSans-74"/>
      <path d="M 9.421875 54.6875 
L 18.40625 54.6875 
L 18.40625 0 
L 9.421875 0 
z
M 9.421875 75.984375 
L 18.40625 75.984375 
L 18.40625 64.59375 
L 9.421875 64.59375 
z
" id="DejaVuSans-69"/>
      <path d="M 52 44.1875 
Q 55.375 50.25 60.0625 53.125 
Q 64.75 56 71.09375 56 
Q 79.640625 56 84.28125 50.015625 
Q 88.921875 44.046875 88.921875 33.015625 
L 88.921875 0 
L 79.890625 0 
L 79.890625 32.71875 
Q 79.890625 40.578125 77.09375 44.375 
Q 74.3125 48.1875 68.609375 48.1875 
Q 61.625 48.1875 57.5625 43.546875 
Q 53.515625 38.921875 53.515625 30.90625 
L 53.515625 0 
L 44.484375 0 
L 44.484375 32.71875 
Q 44.484375 40.625 41.703125 44.40625 
Q 38.921875 48.1875 33.109375 48.1875 
Q 26.21875 48.1875 22.15625 43.53125 
Q 18.109375 38.875 18.109375 30.90625 
L 18.109375 0 
L 9.078125 0 
L 9.078125 54.6875 
L 18.109375 54.6875 
L 18.109375 46.1875 
Q 21.1875 51.21875 25.484375 53.609375 
Q 29.78125 56 35.6875 56 
Q 41.65625 56 45.828125 52.96875 
Q 50 49.953125 52 44.1875 
z
" id="DejaVuSans-6d"/>
      <path d="M 56.203125 29.59375 
L 56.203125 25.203125 
L 14.890625 25.203125 
Q 15.484375 15.921875 20.484375 11.0625 
Q 25.484375 6.203125 34.421875 6.203125 
Q 39.59375 6.203125 44.453125 7.46875 
Q 49.3125 8.734375 54.109375 11.28125 
L 54.109375 2.78125 
Q 49.265625 0.734375 44.1875 -0.34375 
Q 39.109375 -1.421875 33.890625 -1.421875 
Q 20.796875 -1.421875 13.15625 6.1875 
Q 5.515625 13.8125 5.515625 26.8125 
Q 5.515625 40.234375 12.765625 48.109375 
Q 20.015625 56 32.328125 56 
Q 43.359375 56 49.78125 48.890625 
Q 56.203125 41.796875 56.203125 29.59375 
z
M 47.21875 32.234375 
Q 47.125 39.59375 43.09375 43.984375 
Q 39.0625 48.390625 32.421875 48.390625 
Q 24.90625 48.390625 20.390625 44.140625 
Q 15.875 39.890625 15.1875 32.171875 
z
" id="DejaVuSans-65"/>
      <path id="DejaVuSans-20"/>
      <path d="M 8.59375 75.984375 
L 29.296875 75.984375 
L 29.296875 69 
L 17.578125 69 
L 17.578125 -6.203125 
L 29.296875 -6.203125 
L 29.296875 -13.1875 
L 8.59375 -13.1875 
z
" id="DejaVuSans-5b"/>
      <path d="M 44.28125 53.078125 
L 44.28125 44.578125 
Q 40.484375 46.53125 36.375 47.5 
Q 32.28125 48.484375 27.875 48.484375 
Q 21.1875 48.484375 17.84375 46.4375 
Q 14.5 44.390625 14.5 40.28125 
Q 14.5 37.15625 16.890625 35.375 
Q 19.28125 33.59375 26.515625 31.984375 
L 29.59375 31.296875 
Q 39.15625 29.25 43.1875 25.515625 
Q 47.21875 21.78125 47.21875 15.09375 
Q 47.21875 7.46875 41.1875 3.015625 
Q 35.15625 -1.421875 24.609375 -1.421875 
Q 20.21875 -1.421875 15.453125 -0.5625 
Q 10.6875 0.296875 5.421875 2 
L 5.421875 11.28125 
Q 10.40625 8.6875 15.234375 7.390625 
Q 20.0625 6.109375 24.8125 6.109375 
Q 31.15625 6.109375 34.5625 8.28125 
Q 37.984375 10.453125 37.984375 14.40625 
Q 37.984375 18.0625 35.515625 20.015625 
Q 33.0625 21.96875 24.703125 23.78125 
L 21.578125 24.515625 
Q 13.234375 26.265625 9.515625 29.90625 
Q 5.8125 33.546875 5.8125 39.890625 
Q 5.8125 47.609375 11.28125 51.796875 
Q 16.75 56 26.8125 56 
Q 31.78125 56 36.171875 55.265625 
Q 40.578125 54.546875 44.28125 53.078125 
z
" id="DejaVuSans-73"/>
      <path d="M 30.421875 75.984375 
L 30.421875 -13.1875 
L 9.71875 -13.1875 
L 9.71875 -6.203125 
L 21.390625 -6.203125 
L 21.390625 69 
L 9.71875 69 
L 9.71875 75.984375 
z
" id="DejaVuSans-5d"/>
     </defs>
     <g transform="translate(234.038281 412.756563)scale(0.1 -0.1)">
      <use xlink:href="#DejaVuSans-74"/>
      <use x="39.208984" xlink:href="#DejaVuSans-69"/>
      <use x="66.992188" xlink:href="#DejaVuSans-6d"/>
      <use x="164.404297" xlink:href="#DejaVuSans-65"/>
      <use x="225.927734" xlink:href="#DejaVuSans-20"/>
      <use x="257.714844" xlink:href="#DejaVuSans-5b"/>
      <use x="296.728516" xlink:href="#DejaVuSans-6d"/>
      <use x="394.140625" xlink:href="#DejaVuSans-73"/>
      <use x="446.240234" xlink:href="#DejaVuSans-5d"/>
     </g>
    </g>
   </g>
   <g id="matplotlib.axis_2">
    <g id="ytick_1">
     <g id="line2d_6">
      <defs>
       <path d="M 0 0 
L -3.5 0 
" id="m2944dc9236" style="stroke:#000000;stroke-width:0.8;"/>
      </defs>
      <g>
       <use style="stroke:#000000;stroke-width:0.8;" x="63" xlink:href="#m2944dc9236" y="381.879457"/>
      </g>
     </g>
     <g id="text_7">
      <!-- −80 -->
      <defs>
       <path d="M 10.59375 35.5 
L 73.1875 35.5 
L 73.1875 27.203125 
L 10.59375 27.203125 
z
" id="DejaVuSans-2212"/>
      </defs>
      <g transform="translate(34.895313 385.678676)scale(0.1 -0.1)">
       <use xlink:href="#DejaVuSans-2212"/>
       <use x="83.789062" xlink:href="#DejaVuSans-38"/>
       <use x="147.412109" xlink:href="#DejaVuSans-30"/>
      </g>
     </g>
    </g>
    <g id="ytick_2">
     <g id="line2d_7">
      <g>
       <use style="stroke:#000000;stroke-width:0.8;" x="63" xlink:href="#m2944dc9236" y="329.531817"/>
      </g>
     </g>
     <g id="text_8">
      <!-- −60 -->
      <g transform="translate(34.895313 333.331036)scale(0.1 -0.1)">
       <use xlink:href="#DejaVuSans-2212"/>
       <use x="83.789062" xlink:href="#DejaVuSans-36"/>
       <use x="147.412109" xlink:href="#DejaVuSans-30"/>
      </g>
     </g>
    </g>
    <g id="ytick_3">
     <g id="line2d_8">
      <g>
       <use style="stroke:#000000;stroke-width:0.8;" x="63" xlink:href="#m2944dc9236" y="277.184177"/>
      </g>
     </g>
     <g id="text_9">
      <!-- −40 -->
      <g transform="translate(34.895313 280.983395)scale(0.1 -0.1)">
       <use xlink:href="#DejaVuSans-2212"/>
       <use x="83.789062" xlink:href="#DejaVuSans-34"/>
       <use x="147.412109" xlink:href="#DejaVuSans-30"/>
      </g>
     </g>
    </g>
    <g id="ytick_4">
     <g id="line2d_9">
      <g>
       <use style="stroke:#000000;stroke-width:0.8;" x="63" xlink:href="#m2944dc9236" y="224.836536"/>
      </g>
     </g>
     <g id="text_10">
      <!-- −20 -->
      <g transform="translate(34.895313 228.635755)scale(0.1 -0.1)">
       <use xlink:href="#DejaVuSans-2212"/>
       <use x="83.789062" xlink:href="#DejaVuSans-32"/>
       <use x="147.412109" xlink:href="#DejaVuSans-30"/>
      </g>
     </g>
    </g>
    <g id="ytick_5">
     <g id="line2d_10">
      <g>
       <use style="stroke:#000000;stroke-width:0.8;" x="63" xlink:href="#m2944dc9236" y="172.488896"/>
      </g>
     </g>
     <g id="text_11">
      <!-- 0 -->
      <g transform="translate(49.6375 176.288115)scale(0.1 -0.1)">
       <use xlink:href="#DejaVuSans-30"/>
      </g>
     </g>
    </g>
    <g id="ytick_6">
     <g id="line2d_11">
      <g>
       <use style="stroke:#000000;stroke-width:0.8;" x="63" xlink:href="#m2944dc9236" y="120.141256"/>
      </g>
     </g>
     <g id="text_12">
      <!-- 20 -->
      <g transform="translate(43.275 123.940475)scale(0.1 -0.1)">
       <use xlink:href="#DejaVuSans-32"/>
       <use x="63.623047" xlink:href="#DejaVuSans-30"/>
      </g>
     </g>
    </g>
    <g id="ytick_7">
     <g id="line2d_12">
      <g>
       <use style="stroke:#000000;stroke-width:0.8;" x="63" xlink:href="#m2944dc9236" y="67.793616"/>
      </g>
     </g>
     <g id="text_13">
      <!-- 40 -->
      <g transform="translate(43.275 71.592835)scale(0.1 -0.1)">
       <use xlink:href="#DejaVuSans-34"/>
       <use x="63.623047" xlink:href="#DejaVuSans-30"/>
      </g>
     </g>
    </g>
    <g id="text_14">
     <!-- voltage [mV] -->
     <defs>
      <path d="M 2.984375 54.6875 
L 12.5 54.6875 
L 29.59375 8.796875 
L 46.6875 54.6875 
L 56.203125 54.6875 
L 35.6875 0 
L 23.484375 0 
z
" id="DejaVuSans-76"/>
      <path d="M 30.609375 48.390625 
Q 23.390625 48.390625 19.1875 42.75 
Q 14.984375 37.109375 14.984375 27.296875 
Q 14.984375 17.484375 19.15625 11.84375 
Q 23.34375 6.203125 30.609375 6.203125 
Q 37.796875 6.203125 41.984375 11.859375 
Q 46.1875 17.53125 46.1875 27.296875 
Q 46.1875 37.015625 41.984375 42.703125 
Q 37.796875 48.390625 30.609375 48.390625 
z
M 30.609375 56 
Q 42.328125 56 49.015625 48.375 
Q 55.71875 40.765625 55.71875 27.296875 
Q 55.71875 13.875 49.015625 6.21875 
Q 42.328125 -1.421875 30.609375 -1.421875 
Q 18.84375 -1.421875 12.171875 6.21875 
Q 5.515625 13.875 5.515625 27.296875 
Q 5.515625 40.765625 12.171875 48.375 
Q 18.84375 56 30.609375 56 
z
" id="DejaVuSans-6f"/>
      <path d="M 9.421875 75.984375 
L 18.40625 75.984375 
L 18.40625 0 
L 9.421875 0 
z
" id="DejaVuSans-6c"/>
      <path d="M 34.28125 27.484375 
Q 23.390625 27.484375 19.1875 25 
Q 14.984375 22.515625 14.984375 16.5 
Q 14.984375 11.71875 18.140625 8.90625 
Q 21.296875 6.109375 26.703125 6.109375 
Q 34.1875 6.109375 38.703125 11.40625 
Q 43.21875 16.703125 43.21875 25.484375 
L 43.21875 27.484375 
z
M 52.203125 31.203125 
L 52.203125 0 
L 43.21875 0 
L 43.21875 8.296875 
Q 40.140625 3.328125 35.546875 0.953125 
Q 30.953125 -1.421875 24.3125 -1.421875 
Q 15.921875 -1.421875 10.953125 3.296875 
Q 6 8.015625 6 15.921875 
Q 6 25.140625 12.171875 29.828125 
Q 18.359375 34.515625 30.609375 34.515625 
L 43.21875 34.515625 
L 43.21875 35.40625 
Q 43.21875 41.609375 39.140625 45 
Q 35.0625 48.390625 27.6875 48.390625 
Q 23 48.390625 18.546875 47.265625 
Q 14.109375 46.140625 10.015625 43.890625 
L 10.015625 52.203125 
Q 14.9375 54.109375 19.578125 55.046875 
Q 24.21875 56 28.609375 56 
Q 40.484375 56 46.34375 49.84375 
Q 52.203125 43.703125 52.203125 31.203125 
z
" id="DejaVuSans-61"/>
      <path d="M 45.40625 27.984375 
Q 45.40625 37.75 41.375 43.109375 
Q 37.359375 48.484375 30.078125 48.484375 
Q 22.859375 48.484375 18.828125 43.109375 
Q 14.796875 37.75 14.796875 27.984375 
Q 14.796875 18.265625 18.828125 12.890625 
Q 22.859375 7.515625 30.078125 7.515625 
Q 37.359375 7.515625 41.375 12.890625 
Q 45.40625 18.265625 45.40625 27.984375 
z
M 54.390625 6.78125 
Q 54.390625 -7.171875 48.1875 -13.984375 
Q 42 -20.796875 29.203125 -20.796875 
Q 24.46875 -20.796875 20.265625 -20.09375 
Q 16.0625 -19.390625 12.109375 -17.921875 
L 12.109375 -9.1875 
Q 16.0625 -11.328125 19.921875 -12.34375 
Q 23.78125 -13.375 27.78125 -13.375 
Q 36.625 -13.375 41.015625 -8.765625 
Q 45.40625 -4.15625 45.40625 5.171875 
L 45.40625 9.625 
Q 42.625 4.78125 38.28125 2.390625 
Q 33.9375 0 27.875 0 
Q 17.828125 0 11.671875 7.65625 
Q 5.515625 15.328125 5.515625 27.984375 
Q 5.515625 40.671875 11.671875 48.328125 
Q 17.828125 56 27.875 56 
Q 33.9375 56 38.28125 53.609375 
Q 42.625 51.21875 45.40625 46.390625 
L 45.40625 54.6875 
L 54.390625 54.6875 
z
" id="DejaVuSans-67"/>
      <path d="M 28.609375 0 
L 0.78125 72.90625 
L 11.078125 72.90625 
L 34.1875 11.53125 
L 57.328125 72.90625 
L 67.578125 72.90625 
L 39.796875 0 
z
" id="DejaVuSans-56"/>
     </defs>
     <g transform="translate(28.815625 250.624062)rotate(-90)scale(0.1 -0.1)">
      <use xlink:href="#DejaVuSans-76"/>
      <use x="59.179688" xlink:href="#DejaVuSans-6f"/>
      <use x="120.361328" xlink:href="#DejaVuSans-6c"/>
      <use x="148.144531" xlink:href="#DejaVuSans-74"/>
      <use x="187.353516" xlink:href="#DejaVuSans-61"/>
      <use x="248.632812" xlink:href="#DejaVuSans-67"/>
      <use x="312.109375" xlink:href="#DejaVuSans-65"/>
      <use x="373.632812" xlink:href="#DejaVuSans-20"/>
      <use x="405.419922" xlink:href="#DejaVuSans-5b"/>
      <use x="444.433594" xlink:href="#DejaVuSans-6d"/>
      <use x="541.845703" xlink:href="#DejaVuSans-56"/>
      <use x="610.253906" xlink:href="#DejaVuSans-5d"/>
     </g>
    </g>
   </g>
   <g id="line2d_13">
    <path clip-path="url(#p09fe404c36)" d="M 80.754545 342.618727 
L 81.961855 342.482623 
L 83.772818 342.539682 
L 85.974382 342.558527 
L 151.772727 342.54989 
L 152.314241 298.15438 
L 152.420768 249.65874 
L 152.562805 68.642171 
L 152.678209 93.78736 
L 153.565936 369.030205 
L 153.610323 368.92996 
L 153.8145 367.555049 
L 154.293873 362.81497 
L 154.959668 353.719829 
L 157.42755 314.940174 
L 157.613973 303.84483 
L 157.738255 281.942315 
L 157.835905 219.565391 
L 157.969064 92.933308 
L 158.031205 106.047963 
L 158.883423 368.606975 
L 158.945564 368.42402 
L 159.203005 366.450514 
L 159.717886 360.793828 
L 160.534595 348.900967 
L 161.8218 330.82271 
L 162.514227 320.485883 
L 162.771668 312.986822 
L 162.940336 301.029835 
L 163.064618 273.143724 
L 163.162268 188.986595 
L 163.268795 93.850962 
L 163.322059 103.336878 
L 163.863573 297.876937 
L 164.147645 368.430825 
L 164.183155 368.575304 
L 164.245295 368.394443 
L 164.493859 366.496318 
L 165.008741 360.859262 
L 165.834327 348.843647 
L 167.112655 330.897043 
L 167.813959 320.450548 
L 168.0714 312.941803 
L 168.240068 300.945556 
L 168.36435 272.898214 
L 168.462 188.243128 
L 168.568527 93.927652 
L 168.621791 103.558309 
L 169.172182 301.817406 
L 169.4385 368.345236 
L 169.482886 368.57321 
L 169.545027 368.388423 
L 169.802468 366.406803 
L 170.31735 360.732319 
L 171.151814 348.555473 
L 172.430141 330.654935 
L 173.113691 320.432227 
L 173.371132 312.905421 
L 173.5398 300.850021 
L 173.664082 272.561095 
L 173.761732 187.095118 
L 173.868259 93.944403 
L 173.921523 103.793611 
L 174.480791 305.876965 
L 174.729355 368.236092 
L 174.782618 368.57321 
L 174.844759 368.384235 
L 175.1022 366.399475 
L 175.617082 360.721588 
L 176.451545 348.542648 
L 177.729873 330.644204 
L 178.413423 320.415475 
L 178.670864 312.869563 
L 178.839532 300.753178 
L 178.963814 272.215077 
L 179.061464 185.913501 
L 179.167991 93.961678 
L 179.221255 104.031531 
L 179.7894 310.039388 
L 180.029086 368.248393 
L 180.08235 368.573472 
L 180.144491 368.379786 
L 180.401932 366.392146 
L 180.916814 360.711118 
L 181.751277 348.530346 
L 183.029605 330.633735 
L 183.713155 320.398462 
L 183.970595 312.833443 
L 184.139264 300.655288 
L 184.263545 271.860945 
L 184.361195 184.711102 
L 184.467723 93.985496 
L 184.520986 104.273116 
L 185.098009 314.293419 
L 185.328818 368.260433 
L 185.382082 368.573472 
L 185.444223 368.375598 
L 185.701664 366.384556 
L 186.216545 360.700649 
L 187.051009 348.517783 
L 188.329336 330.623265 
L 189.012886 320.381711 
L 189.270327 312.797062 
L 189.438995 300.555828 
L 189.563277 271.501579 
L 189.660927 183.503913 
L 189.767455 94.015072 
L 189.820718 104.517056 
L 190.406618 318.619428 
L 190.619673 368.126947 
L 190.681814 368.57321 
L 190.743955 368.371149 
L 191.010273 366.296088 
L 191.525155 360.575538 
L 192.368495 348.233011 
L 193.637945 330.497631 
L 194.312618 320.364436 
L 194.570059 312.76068 
L 194.738727 300.455844 
L 194.863009 271.138809 
L 194.969536 168.970742 
L 195.058309 94.001724 
L 195.12045 104.763613 
L 195.715227 322.991503 
L 195.919405 368.142389 
L 195.981545 368.57321 
L 196.043686 368.366699 
L 196.310005 366.288498 
L 196.833764 360.449904 
L 197.703736 347.676818 
L 198.955432 330.257093 
L 199.61235 320.347423 
L 199.869791 312.723775 
L 200.038459 300.354813 
L 200.162741 270.768712 
L 200.269268 167.71097 
L 200.358041 93.972409 
L 200.420182 105.014358 
L 201.023836 327.372738 
L 201.219136 368.157047 
L 201.281277 368.572687 
L 201.343418 368.362249 
L 201.609736 366.280907 
L 202.133495 360.438911 
L 202.994591 347.799835 
L 204.255164 330.246362 
L 204.912082 320.329887 
L 205.169523 312.686346 
L 205.338191 300.252211 
L 205.462473 270.391023 
L 205.569 166.442744 
L 205.657773 93.950161 
L 205.719914 105.266936 
L 206.332445 331.715237 
L 206.518868 368.171704 
L 206.581009 368.572425 
L 206.634273 368.404128 
L 206.873959 366.594208 
L 207.388841 360.998769 
L 208.187795 349.420518 
L 209.510509 330.809623 
L 210.202936 320.496352 
L 210.460377 313.040478 
L 210.629045 301.21279 
L 210.753327 273.848585 
L 210.850977 191.539956 
L 210.957505 93.93498 
L 211.019645 105.52056 
L 211.641055 335.96508 
L 211.827477 368.316969 
L 211.880741 368.571902 
L 211.934005 368.39994 
L 212.182568 366.507311 
L 212.69745 360.874966 
L 213.514159 348.998857 
L 214.810241 330.798892 
L 215.502668 320.479339 
L 215.760109 313.00462 
L 215.928777 301.116733 
L 216.053059 273.510158 
L 216.150709 190.364228 
L 216.257236 93.928699 
L 216.319377 105.773661 
L 216.949664 340.058927 
L 217.127209 368.327438 
L 217.171595 368.572425 
L 217.233736 368.395752 
L 217.4823 366.499982 
L 217.997182 360.864497 
L 218.822768 348.849928 
L 220.101095 330.902802 
L 220.8024 320.462326 
L 221.059841 312.969024 
L 221.228509 301.020936 
L 221.352791 273.170421 
L 221.450441 189.189076 
L 221.556968 93.929222 
L 221.610232 103.373783 
L 222.151745 297.932164 
L 222.426941 368.337384 
L 222.471327 368.572687 
L 222.533468 368.391564 
L 222.782032 366.492653 
L 223.296914 360.854027 
L 224.1225 348.837103 
L 225.418582 330.663049 
L 226.111009 320.260788 
L 226.36845 312.537417 
L 226.537118 299.839974 
L 226.652523 272.828068 
L 226.750173 188.009239 
L 226.8567 93.935242 
L 226.909964 103.610656 
L 227.460355 301.892525 
L 227.726673 368.347069 
L 227.771059 368.57321 
L 227.8332 368.387376 
L 228.090641 366.404971 
L 228.605523 360.729702 
L 229.439986 348.552332 
L 230.718314 330.652318 
L 231.401864 320.4283 
L 231.659305 312.897045 
L 231.827973 300.828035 
L 231.952255 272.483359 
L 232.049905 186.829192 
L 232.156432 93.948067 
L 232.209695 103.847268 
L 232.768964 305.955225 
L 233.017527 368.238971 
L 233.070791 368.57321 
L 233.132932 368.383188 
L 233.390373 366.397642 
L 233.905255 360.719232 
L 234.739718 348.539769 
L 236.018045 330.641849 
L 236.701595 320.411549 
L 236.959036 312.861449 
L 237.127705 300.731192 
L 237.251986 272.135508 
L 237.349636 185.642392 
L 237.456164 93.966389 
L 237.509427 104.086235 
L 238.077573 310.120003 
L 238.317259 368.251011 
L 238.370523 368.573472 
L 238.432664 368.379001 
L 238.690105 366.390314 
L 239.204986 360.708763 
L 240.03945 348.527467 
L 241.317777 330.631379 
L 242.001327 320.394798 
L 242.258768 312.825329 
L 242.427436 300.632779 
L 242.551718 271.779545 
L 242.649368 184.437193 
L 242.755895 93.991778 
L 242.809159 104.328343 
L 243.386182 314.375866 
L 243.616991 368.263051 
L 243.670255 368.573472 
L 243.732395 368.374551 
L 243.989836 366.382985 
L 244.504718 360.698293 
L 245.348059 348.3788 
L 246.617509 330.620648 
L 247.301059 320.377785 
L 247.5585 312.788948 
L 247.727168 300.533056 
L 247.85145 271.419655 
L 247.9491 183.228826 
L 248.055627 94.022924 
L 248.108891 104.572806 
L 248.694791 318.703707 
L 248.907845 368.130611 
L 248.969986 368.57321 
L 249.032127 368.370363 
L 249.298445 366.294518 
L 249.822205 360.458279 
L 250.692177 347.686764 
L 251.943873 330.265469 
L 252.600791 320.36051 
L 252.858232 312.752304 
L 253.0269 300.432811 
L 253.151182 271.055053 
L 253.257709 168.683929 
L 253.346482 93.994395 
L 253.408623 104.820672 
L 254.0034 323.077353 
L 254.207577 368.145792 
L 254.269718 368.572949 
L 254.331859 368.365914 
L 254.598177 366.286927 
L 255.121936 360.447286 
L 255.983032 347.809781 
L 257.22585 330.484544 
L 257.900523 320.343497 
L 258.157964 312.715399 
L 258.326632 300.331518 
L 258.450914 270.683123 
L 258.557441 167.421566 
L 258.646214 93.966651 
L 258.708355 105.072203 
L 259.312009 327.458589 
L 259.507309 368.160449 
L 259.56945 368.572687 
L 259.631591 368.361202 
L 259.897909 366.279075 
L 260.421668 360.436555 
L 261.291641 347.661375 
L 262.525582 330.473813 
L 263.200255 320.325961 
L 263.457695 312.677971 
L 263.626364 300.228655 
L 263.750645 270.304126 
L 263.857173 166.152816 
L 263.945945 93.945973 
L 264.008086 105.32478 
L 264.620618 331.799778 
L 264.807041 368.175107 
L 264.869182 368.572163 
L 264.922445 368.403342 
L 265.171009 366.513069 
L 265.685891 360.883342 
L 266.511477 348.872438 
L 267.807559 330.692626 
L 268.499986 320.308686 
L 268.757427 312.640542 
L 268.926095 300.125792 
L 269.050377 269.925129 
L 269.156905 164.893515 
L 269.245677 93.932886 
L 269.298941 102.956311 
L 269.8227 290.393842 
L 270.133405 368.485266 
L 270.168914 368.571902 
L 270.222177 368.399155 
L 270.470741 366.50574 
L 270.985623 360.872611 
L 271.802332 348.995978 
L 273.098414 330.796536 
L 273.790841 320.475413 
L 274.048282 312.996506 
L 274.21695 301.095008 
L 274.341232 273.432683 
L 274.438882 190.095266 
L 274.545409 93.928437 
L 274.598673 103.191614 
L 275.131309 294.150047 
L 275.424259 368.423496 
L 275.459768 368.572425 
L 275.521909 368.394967 
L 275.770473 366.498412 
L 276.285355 360.862141 
L 277.110941 348.847049 
L 278.389268 330.900446 
L 279.090573 320.4584 
L 279.348014 312.960648 
L 279.516682 300.99895 
L 279.640964 273.092423 
L 279.738614 188.920009 
L 279.845141 93.929746 
L 279.898405 103.427963 
L 280.439918 298.007806 
L 280.715114 368.339478 
L 280.7595 368.572949 
L 280.821641 368.390779 
L 281.079082 366.410729 
L 281.593964 360.737816 
L 282.428427 348.562016 
L 283.706755 330.660432 
L 284.390305 320.441387 
L 284.647745 312.92479 
L 284.816414 300.902631 
L 284.940695 272.749546 
L 285.038345 187.740067 
L 285.144873 93.937598 
L 285.198136 103.664574 
L 285.748527 301.969214 
L 286.014845 368.349163 
L 286.059232 368.57321 
L 286.121373 368.386329 
L 286.378814 366.403401 
L 286.893695 360.727346 
L 287.728159 348.549453 
L 289.006486 330.649962 
L 289.690036 320.424636 
L 289.947477 312.888932 
L 290.116145 300.806049 
L 290.240427 272.404314 
L 290.338077 186.559131 
L 290.444605 93.951732 
L 290.497868 103.901448 
L 291.057136 306.03427 
L 291.3057 368.24185 
L 291.358964 368.573472 
L 291.421105 368.382142 
L 291.678545 366.396072 
L 292.193427 360.716877 
L 293.027891 348.536889 
L 294.315095 330.52459 
L 294.989768 320.407623 
L 295.247209 312.853073 
L 295.415877 300.708944 
L 295.540159 272.054893 
L 295.637809 185.368431 
L 295.744336 93.971624 
L 295.7976 104.1412 
L 296.365745 310.201142 
L 296.605432 368.25389 
L 296.658695 368.573472 
L 296.720836 368.377954 
L 296.978277 366.388743 
L 297.493159 360.706407 
L 298.327623 348.524588 
L 299.60595 330.629023 
L 300.2895 320.390872 
L 300.546941 312.816954 
L 300.715609 300.610007 
L 300.839891 271.697882 
L 300.937541 184.162891 
L 301.044068 93.998321 
L 301.097332 104.383569 
L 301.674355 314.458314 
L 301.905164 368.265668 
L 301.958427 368.573472 
L 302.020568 368.373766 
L 302.286886 366.300276 
L 302.810645 360.466393 
L 303.671741 347.83229 
L 304.914559 330.503651 
L 305.589232 320.373859 
L 305.846673 312.780572 
L 306.015341 300.510547 
L 306.139623 271.337469 
L 306.24615 169.652832 
L 306.334923 94.020307 
L 306.397064 104.628818 
L 306.982964 318.787987 
L 307.196018 368.134014 
L 307.258159 368.57321 
L 307.3203 368.369316 
L 307.586618 366.292685 
L 308.110377 360.455662 
L 308.971473 347.819727 
L 310.214291 330.49292 
L 310.888964 320.356846 
L 311.146405 312.743929 
L 311.315073 300.410039 
L 311.439355 270.971035 
L 311.545882 168.398138 
L 311.634655 93.98759 
L 311.696795 104.877469 
L 312.291573 323.162679 
L 312.49575 368.149195 
L 312.557891 368.572949 
L 312.620032 368.364867 
L 312.88635 366.285095 
L 313.410109 360.444931 
L 314.280082 347.671059 
L 315.531777 330.25212 
L 316.188695 320.33931 
L 316.446136 312.706762 
L 316.614805 300.308223 
L 316.739086 270.597797 
L 316.845614 167.133261 
L 316.934386 93.961416 
L 316.996527 105.129523 
L 317.600182 327.544177 
L 317.795482 368.163852 
L 317.857623 368.572687 
L 317.910886 368.406483 
L 318.150573 366.598134 
L 318.665455 361.004527 
L 319.464409 349.427323 
L 320.787123 330.815643 
L 321.488427 320.322035 
L 321.745868 312.669333 
L 321.914536 300.205098 
L 322.038818 270.217491 
L 322.145345 165.864276 
L 322.234118 93.942309 
L 322.296259 105.382624 
L 322.908791 331.884058 
L 323.095214 368.178509 
L 323.157355 368.572163 
L 323.210618 368.402295 
L 323.459182 366.511499 
L 323.974064 360.880725 
L 324.790773 349.005663 
L 326.095732 330.690008 
L 326.779282 320.4885 
L 327.036723 313.02425 
L 327.205391 301.16908 
L 327.329673 273.694421 
L 327.427323 191.003916 
L 327.53385 93.931054 
L 327.595991 105.635987 
L 328.2174 336.127881 
L 328.403823 368.32168 
L 328.457086 368.57164 
L 328.51035 368.398108 
L 328.758914 366.503908 
L 329.273795 360.870255 
L 329.318182 360.296787 
L 329.335936 361.195596 
L 329.531236 365.181345 
L 329.620009 365.369011 
L 329.664395 365.311691 
L 329.815309 364.705505 
L 330.214786 361.891558 
L 332.176664 347.1502 
L 332.869091 343.931606 
L 333.428359 342.277944 
L 333.889977 341.535654 
L 334.262823 341.308989 
L 334.617914 341.349035 
L 335.097286 341.663906 
L 336.464386 342.690443 
L 337.059164 342.816863 
L 337.849241 342.752737 
L 339.891014 342.503824 
L 342.057068 342.550937 
L 435.845455 342.54989 
L 435.845455 342.54989 
" style="fill:none;stroke:#1f77b4;stroke-linecap:square;stroke-width:1.5;"/>
   </g>
   <g id="line2d_14">
    <path clip-path="url(#p09fe404c36)" d="M 80.754545 342.618727 
L 81.251673 344.416848 
L 81.686659 345.281345 
L 82.050627 345.565138 
L 82.405718 345.561304 
L 82.885091 345.300038 
L 84.767073 344.073347 
L 85.495009 343.980814 
L 86.595791 344.100784 
L 88.389 344.262905 
L 93.511186 344.216443 
L 120.586868 344.21729 
L 151.772727 344.21729 
L 152.314241 300.167991 
L 152.420768 256.626115 
L 152.571682 66.96 
L 152.704841 98.505656 
L 153.583691 369.36 
L 153.636955 369.218454 
L 153.876641 367.609009 
L 154.364891 362.824999 
L 155.030686 353.779119 
L 157.400918 316.564193 
L 157.596218 306.839849 
L 157.738255 286.444989 
L 157.844782 227.620749 
L 157.977941 92.674154 
L 158.057836 109.292161 
L 158.901177 368.929726 
L 158.918932 368.917757 
L 159.016582 368.462284 
L 159.389427 365.345211 
L 159.948695 358.699703 
L 161.218145 339.791801 
L 162.647386 317.906524 
L 162.860441 309.224174 
L 163.011355 292.658538 
L 163.117882 252.63951 
L 163.28655 93.684412 
L 163.393077 122.097 
L 164.147645 368.559315 
L 164.200909 368.897941 
L 164.26305 368.732047 
L 164.511614 366.937996 
L 165.017618 361.642925 
L 165.754432 351.202955 
L 167.370095 328.139126 
L 167.8761 319.631575 
L 168.115786 311.627421 
L 168.275577 298.229361 
L 168.390982 267.380421 
L 168.497509 157.542745 
L 168.586282 93.800986 
L 168.639545 104.272577 
L 169.225445 319.762987 
L 169.4385 368.436187 
L 169.500641 368.896215 
L 169.562782 368.72188 
L 169.811345 366.921298 
L 170.31735 361.618899 
L 171.054164 351.173074 
L 172.669827 328.113017 
L 173.175832 319.589794 
L 173.415518 311.538161 
L 173.575309 297.982877 
L 173.690714 266.518717 
L 173.797241 154.959548 
L 173.877136 93.804553 
L 173.939277 104.801972 
L 174.542932 328.564739 
L 174.738232 368.46774 
L 174.800373 368.896247 
L 174.862514 368.713126 
L 175.119955 366.829724 
L 175.625959 361.487311 
L 176.380527 350.73744 
L 177.942927 328.456209 
L 178.466686 319.754029 
L 178.71525 311.44811 
L 178.875041 297.730444 
L 178.990445 265.624986 
L 179.096973 152.358833 
L 179.176868 93.756348 
L 179.239009 105.339214 
L 179.860418 337.144208 
L 180.046841 368.627903 
L 180.100105 368.896021 
L 180.162245 368.70441 
L 180.419686 366.81456 
L 180.925691 361.465573 
L 181.680259 350.710517 
L 183.242659 328.432061 
L 183.766418 319.713697 
L 184.006105 311.80871 
L 184.165895 298.730977 
L 184.2813 269.12061 
L 184.387827 163.015226 
L 184.4766 93.742162 
L 184.529864 103.205351 
L 185.080255 302.711134 
L 185.346573 368.649491 
L 185.399836 368.895326 
L 185.461977 368.695523 
L 185.728295 366.722103 
L 186.2343 361.333342 
L 186.997745 350.410929 
L 188.533514 328.529851 
L 189.057273 319.876184 
L 189.305836 311.720727 
L 189.465627 298.490269 
L 189.581032 268.291106 
L 189.687559 160.373291 
L 189.776332 93.757178 
L 189.829595 103.718341 
L 190.397741 311.043948 
L 190.637427 368.553465 
L 190.690691 368.895369 
L 190.752832 368.730673 
L 191.001395 366.936997 
L 191.5074 361.641515 
L 192.244214 351.201229 
L 193.859877 328.138549 
L 194.365882 319.632732 
L 194.605568 311.632366 
L 194.765359 298.246139 
L 194.880764 267.443207 
L 194.987291 157.743531 
L 195.076064 93.802176 
L 195.129327 104.238626 
L 195.715227 319.712299 
L 195.928282 368.433862 
L 195.990423 368.896009 
L 196.052564 368.722264 
L 196.301127 366.922077 
L 196.807132 361.620022 
L 197.543945 351.174474 
L 199.159609 328.114351 
L 199.665614 319.592185 
L 199.9053 311.543575 
L 200.065091 297.99826 
L 200.180495 266.573443 
L 200.287023 155.122756 
L 200.366918 93.80913 
L 200.429059 104.769122 
L 201.032714 328.516297 
L 201.228014 368.465828 
L 201.290155 368.896237 
L 201.352295 368.713648 
L 201.609736 366.830643 
L 202.115741 361.48863 
L 202.870309 350.739074 
L 204.432709 328.457677 
L 204.956468 319.756491 
L 205.205032 311.453663 
L 205.364823 297.746072 
L 205.480227 265.680436 
L 205.586755 152.518521 
L 205.66665 93.758406 
L 205.728791 105.305841 
L 206.3502 337.097794 
L 206.536623 368.626512 
L 206.589886 368.896044 
L 206.652027 368.704952 
L 206.909468 366.8155 
L 207.415473 361.466919 
L 208.170041 350.712184 
L 209.732441 328.433557 
L 210.2562 319.716197 
L 210.495886 311.814126 
L 210.655677 298.745772 
L 210.771082 269.171306 
L 210.877609 163.179173 
L 210.966382 93.742223 
L 211.019645 103.173762 
L 211.561159 299.01125 
L 211.836355 368.648188 
L 211.889618 368.895379 
L 211.951759 368.696076 
L 212.218077 366.723053 
L 212.724082 361.334698 
L 213.487527 350.4126 
L 215.023295 328.531346 
L 215.547055 319.878654 
L 215.795618 311.726215 
L 215.955409 298.50531 
L 216.070814 268.343108 
L 216.177341 160.536975 
L 216.266114 93.755387 
L 216.319377 103.686314 
L 216.887523 310.996578 
L 217.127209 368.551826 
L 217.180473 368.89531 
L 217.242614 368.731188 
L 217.491177 366.93792 
L 217.997182 361.642845 
L 218.733995 351.202885 
L 220.349659 328.140047 
L 220.855664 319.635237 
L 221.09535 311.63784 
L 221.255141 298.261386 
L 221.370545 267.496303 
L 221.477073 157.905261 
L 221.565845 93.798519 
L 221.619109 104.206313 
L 222.205009 319.663693 
L 222.418064 368.43185 
L 222.480205 368.89598 
L 222.542345 368.722787 
L 222.790909 366.922999 
L 223.296914 361.62135 
L 224.033727 351.176126 
L 225.649391 328.115844 
L 226.155395 319.59469 
L 226.395082 311.549066 
L 226.554873 298.013642 
L 226.670277 266.627848 
L 226.776805 155.28461 
L 226.8567 93.813395 
L 226.918841 104.736177 
L 227.522495 328.467695 
L 227.717795 368.463922 
L 227.779936 368.896239 
L 227.842077 368.714182 
L 228.099518 366.831579 
L 228.605523 361.489972 
L 229.360091 350.740737 
L 230.922491 328.459167 
L 231.44625 319.758978 
L 231.694814 311.459258 
L 231.854605 297.761804 
L 231.970009 265.736225 
L 232.076536 152.679262 
L 232.156432 93.760563 
L 232.218573 105.27229 
L 232.839982 337.051159 
L 233.026405 368.625112 
L 233.079668 368.896067 
L 233.141809 368.705498 
L 233.39925 366.816444 
L 233.905255 361.468273 
L 234.659823 350.71386 
L 236.222223 328.43506 
L 236.745982 319.718709 
L 236.985668 311.819567 
L 237.145459 298.760634 
L 237.260864 269.222166 
L 237.367391 163.343645 
L 237.456164 93.742362 
L 237.509427 103.142103 
L 238.050941 298.966931 
L 238.326136 368.646881 
L 238.3794 368.895432 
L 238.441541 368.696629 
L 238.707859 366.724005 
L 239.213864 361.336056 
L 239.977309 350.414273 
L 241.513077 328.532843 
L 242.036836 319.881119 
L 242.2854 311.731688 
L 242.445191 298.520305 
L 242.560595 268.394934 
L 242.667123 160.7002 
L 242.755895 93.753705 
L 242.809159 103.654441 
L 243.377305 310.949388 
L 243.616991 368.550178 
L 243.670255 368.895247 
L 243.732395 368.7317 
L 243.980959 366.93884 
L 244.486964 361.64417 
L 245.223777 351.204536 
L 246.839441 328.141541 
L 247.345445 319.637733 
L 247.585132 311.643294 
L 247.744923 298.276572 
L 247.860327 267.549178 
L 247.966855 158.066429 
L 248.055627 93.794979 
L 248.108891 104.174182 
L 248.694791 319.61538 
L 248.907845 368.429844 
L 248.969986 368.895948 
L 249.032127 368.723304 
L 249.280691 366.923913 
L 249.786695 361.622667 
L 250.523509 351.177765 
L 252.139173 328.117326 
L 252.645177 319.597176 
L 252.884864 311.554517 
L 253.044655 298.028908 
L 253.160059 266.681809 
L 253.266586 155.445584 
L 253.346482 93.817794 
L 253.408623 104.703402 
L 254.012277 328.419279 
L 254.207577 368.462017 
L 254.269718 368.896239 
L 254.331859 368.714714 
L 254.5893 366.832511 
L 255.095305 361.491308 
L 255.849873 350.742394 
L 257.412273 328.46065 
L 257.936032 319.761452 
L 258.184595 311.464823 
L 258.344386 297.777448 
L 258.459791 265.791694 
L 258.566318 152.839213 
L 258.646214 93.762823 
L 258.708355 105.238976 
L 259.329764 337.004886 
L 259.516186 368.623719 
L 259.56945 368.896089 
L 259.631591 368.706038 
L 259.889032 366.81738 
L 260.395036 361.469615 
L 261.149605 350.715521 
L 262.712005 328.436551 
L 263.235764 319.721201 
L 263.47545 311.824964 
L 263.635241 298.77537 
L 263.750645 269.272589 
L 263.857173 163.506986 
L 263.945945 93.742607 
L 263.999209 103.110718 
L 264.540723 298.922961 
L 264.815918 368.645582 
L 264.869182 368.895484 
L 264.931323 368.697179 
L 265.197641 366.72495 
L 265.703645 361.337405 
L 266.467091 350.415935 
L 268.002859 328.53433 
L 268.526618 319.883567 
L 268.775182 311.737125 
L 268.934973 298.535196 
L 269.050377 268.446397 
L 269.156905 160.862418 
L 269.245677 93.752122 
L 269.298941 103.622807 
L 269.858209 307.063936 
L 270.106773 368.548528 
L 270.168914 368.894546 
L 270.222177 368.732208 
L 270.461864 367.015203 
L 270.958991 361.862802 
L 271.686927 351.613768 
L 273.364732 327.648038 
L 273.852982 319.221159 
L 274.092668 310.711855 
L 274.252459 295.604498 
L 274.367864 257.807349 
L 274.545409 93.791562 
L 274.669691 129.366919 
L 275.38875 368.238626 
L 275.459768 368.895916 
L 275.521909 368.723819 
L 275.770473 366.924823 
L 276.276477 361.623978 
L 277.013291 351.179396 
L 278.628955 328.118801 
L 279.134959 319.599651 
L 279.374645 311.559944 
L 279.534436 298.044106 
L 279.649841 266.735497 
L 279.756368 155.605762 
L 279.836264 93.822268 
L 279.898405 104.67079 
L 280.493182 324.367579 
L 280.697359 368.460098 
L 280.7595 368.896235 
L 280.821641 368.715244 
L 281.079082 366.833441 
L 281.585086 361.492642 
L 282.339655 350.744047 
L 283.902055 328.462128 
L 284.425814 319.763918 
L 284.674377 311.470364 
L 284.834168 297.793019 
L 284.949573 265.846887 
L 285.0561 152.998489 
L 285.135995 93.765183 
L 285.198136 105.205869 
L 285.819545 336.958895 
L 286.005968 368.622333 
L 286.059232 368.89611 
L 286.121373 368.706575 
L 286.378814 366.818311 
L 286.884818 361.470949 
L 287.639386 350.717173 
L 289.201786 328.438033 
L 289.725545 319.723679 
L 289.974109 311.379787 
L 290.1339 297.538135 
L 290.249305 264.94028 
L 290.355832 150.419813 
L 290.435727 93.742914 
L 290.497868 105.748399 
L 291.358964 368.895537 
L 291.421105 368.697726 
L 291.687423 366.725889 
L 292.193427 361.338747 
L 292.956873 350.417588 
L 294.492641 328.535807 
L 295.0164 319.886001 
L 295.264964 311.742528 
L 295.424755 298.549996 
L 295.540159 268.497534 
L 295.646686 161.02377 
L 295.735459 93.750624 
L 295.788723 103.591343 
L 296.347991 307.018201 
L 296.596555 368.546886 
L 296.658695 368.89461 
L 296.711959 368.732714 
L 296.951645 367.016106 
L 297.448773 361.864103 
L 298.167832 351.751073 
L 299.872268 327.399559 
L 300.342764 319.223726 
L 300.58245 310.717733 
L 300.742241 295.622039 
L 300.857645 257.873905 
L 301.035191 93.788272 
L 301.159473 129.325435 
L 301.878532 368.236062 
L 301.94955 368.895882 
L 302.011691 368.724332 
L 302.260255 366.925731 
L 302.766259 361.625286 
L 303.503073 351.181024 
L 305.118736 328.120273 
L 305.624741 319.602122 
L 305.864427 311.56536 
L 306.024218 298.059271 
L 306.139623 266.788913 
L 306.24615 155.765604 
L 306.326045 93.826751 
L 306.388186 104.638197 
L 306.982964 324.31886 
L 307.187141 368.458175 
L 307.249282 368.896232 
L 307.311423 368.715776 
L 307.568864 366.834376 
L 308.074868 361.493983 
L 308.820559 350.8819 
L 310.400714 328.341419 
L 310.915595 319.766387 
L 311.164159 311.475894 
L 311.32395 297.80854 
L 311.439355 265.901882 
L 311.545882 153.157294 
L 311.625777 93.767637 
L 311.687918 105.17291 
L 312.309327 336.913085 
L 312.49575 368.62095 
L 312.549014 368.896131 
L 312.611155 368.70711 
L 312.868595 366.819239 
L 313.3746 361.472278 
L 314.129168 350.718819 
L 315.691568 328.439511 
L 316.215327 319.726149 
L 316.463891 311.385352 
L 316.623682 297.553814 
L 316.739086 264.996191 
L 316.845614 150.576099 
L 316.925509 93.743215 
L 316.98765 105.715114 
L 317.848745 368.895592 
L 317.919764 368.651885 
L 318.212714 366.411892 
L 318.736473 360.667059 
L 319.562059 348.644979 
L 320.964668 328.780281 
L 321.506182 319.888432 
L 321.754745 311.747924 
L 321.914536 298.56477 
L 322.029941 268.548573 
L 322.136468 161.184904 
L 322.225241 93.749239 
L 322.278505 103.55998 
L 322.837773 306.972611 
L 323.086336 368.545245 
L 323.148477 368.894673 
L 323.201741 368.733218 
L 323.441427 367.017007 
L 323.938555 361.865399 
L 324.657614 351.752699 
L 326.36205 327.401063 
L 326.832545 319.226285 
L 327.072232 310.723595 
L 327.232023 295.639526 
L 327.347427 257.940248 
L 327.524973 93.78513 
L 327.649255 129.283961 
L 328.368314 368.233495 
L 328.439332 368.895848 
L 328.501473 368.724845 
L 328.750036 366.92664 
L 329.256041 361.626594 
L 329.318182 360.848935 
L 329.335936 361.759934 
L 329.540114 366.123962 
L 329.655518 366.420719 
L 329.691027 366.389961 
L 329.824186 365.989862 
L 330.152645 364.102019 
L 331.155777 356.584375 
L 332.185541 349.673758 
L 332.922355 346.114563 
L 333.526009 344.186998 
L 334.014259 343.280193 
L 334.413736 342.952223 
L 334.777705 342.927742 
L 335.212691 343.142237 
L 337.236709 344.438573 
L 337.9824 344.466666 
L 342.500932 344.208821 
L 347.125991 344.215705 
L 435.845455 344.21729 
L 435.845455 344.21729 
" style="fill:none;stroke:#ff0000;stroke-linecap:square;stroke-width:1.5;"/>
   </g>
   <g id="patch_3">
    <path d="M 63 384.48 
L 63 51.84 
" style="fill:none;stroke:#000000;stroke-linecap:square;stroke-linejoin:miter;stroke-width:0.8;"/>
   </g>
   <g id="patch_4">
    <path d="M 453.6 384.48 
L 453.6 51.84 
" style="fill:none;stroke:#000000;stroke-linecap:square;stroke-linejoin:miter;stroke-width:0.8;"/>
   </g>
   <g id="patch_5">
    <path d="M 63 384.48 
L 453.6 384.48 
" style="fill:none;stroke:#000000;stroke-linecap:square;stroke-linejoin:miter;stroke-width:0.8;"/>
   </g>
   <g id="patch_6">
    <path d="M 63 51.84 
L 453.6 51.84 
" style="fill:none;stroke:#000000;stroke-linecap:square;stroke-linejoin:miter;stroke-width:0.8;"/>
   </g>
   <g id="legend_1">
    <g id="patch_7">
     <path d="M 383.460938 89.19625 
L 446.6 89.19625 
Q 448.6 89.19625 448.6 87.19625 
L 448.6 58.84 
Q 448.6 56.84 446.6 56.84 
L 383.460938 56.84 
Q 381.460938 56.84 381.460938 58.84 
L 381.460938 87.19625 
Q 381.460938 89.19625 383.460938 89.19625 
z
" style="fill:#ffffff;opacity:0.8;stroke:#cccccc;stroke-linejoin:miter;"/>
    </g>
    <g id="line2d_15">
     <path d="M 385.460938 64.938437 
L 405.460938 64.938437 
" style="fill:none;stroke:#1f77b4;stroke-linecap:square;stroke-width:1.5;"/>
    </g>
    <g id="line2d_16"/>
    <g id="text_15">
     <!-- target -->
     <defs>
      <path d="M 41.109375 46.296875 
Q 39.59375 47.171875 37.8125 47.578125 
Q 36.03125 48 33.890625 48 
Q 26.265625 48 22.1875 43.046875 
Q 18.109375 38.09375 18.109375 28.8125 
L 18.109375 0 
L 9.078125 0 
L 9.078125 54.6875 
L 18.109375 54.6875 
L 18.109375 46.1875 
Q 20.953125 51.171875 25.484375 53.578125 
Q 30.03125 56 36.53125 56 
Q 37.453125 56 38.578125 55.875 
Q 39.703125 55.765625 41.0625 55.515625 
z
" id="DejaVuSans-72"/>
     </defs>
     <g transform="translate(413.460938 68.438437)scale(0.1 -0.1)">
      <use xlink:href="#DejaVuSans-74"/>
      <use x="39.208984" xlink:href="#DejaVuSans-61"/>
      <use x="100.488281" xlink:href="#DejaVuSans-72"/>
      <use x="141.585938" xlink:href="#DejaVuSans-67"/>
      <use x="205.0625" xlink:href="#DejaVuSans-65"/>
      <use x="266.585938" xlink:href="#DejaVuSans-74"/>
     </g>
    </g>
    <g id="line2d_17">
     <path d="M 385.460938 79.616562 
L 405.460938 79.616562 
" style="fill:none;stroke:#ff0000;stroke-linecap:square;stroke-width:1.5;"/>
    </g>
    <g id="line2d_18"/>
    <g id="text_16">
     <!-- model -->
     <defs>
      <path d="M 45.40625 46.390625 
L 45.40625 75.984375 
L 54.390625 75.984375 
L 54.390625 0 
L 45.40625 0 
L 45.40625 8.203125 
Q 42.578125 3.328125 38.25 0.953125 
Q 33.9375 -1.421875 27.875 -1.421875 
Q 17.96875 -1.421875 11.734375 6.484375 
Q 5.515625 14.40625 5.515625 27.296875 
Q 5.515625 40.1875 11.734375 48.09375 
Q 17.96875 56 27.875 56 
Q 33.9375 56 38.25 53.625 
Q 42.578125 51.265625 45.40625 46.390625 
z
M 14.796875 27.296875 
Q 14.796875 17.390625 18.875 11.75 
Q 22.953125 6.109375 30.078125 6.109375 
Q 37.203125 6.109375 41.296875 11.75 
Q 45.40625 17.390625 45.40625 27.296875 
Q 45.40625 37.203125 41.296875 42.84375 
Q 37.203125 48.484375 30.078125 48.484375 
Q 22.953125 48.484375 18.875 42.84375 
Q 14.796875 37.203125 14.796875 27.296875 
z
" id="DejaVuSans-64"/>
     </defs>
     <g transform="translate(413.460938 83.116562)scale(0.1 -0.1)">
      <use xlink:href="#DejaVuSans-6d"/>
      <use x="97.412109" xlink:href="#DejaVuSans-6f"/>
      <use x="158.59375" xlink:href="#DejaVuSans-64"/>
      <use x="222.070312" xlink:href="#DejaVuSans-65"/>
      <use x="283.59375" xlink:href="#DejaVuSans-6c"/>
     </g>
    </g>
   </g>
  </g>
 </g>
 <defs>
  <clipPath id="p09fe404c36">
   <rect height="332.64" width="390.6" x="63" y="51.84"/>
  </clipPath>
 </defs>
</svg>
