<?xml version="1.0" encoding="utf-8" standalone="no"?>
<!DOCTYPE svg PUBLIC "-//W3C//DTD SVG 1.1//EN"
  "http://www.w3.org/Graphics/SVG/1.1/DTD/svg11.dtd">
<!-- Created with matplotlib (http://matplotlib.org/) -->
<svg height="432pt" version="1.1" viewBox="0 0 504 432" width="504pt" xmlns="http://www.w3.org/2000/svg" xmlns:xlink="http://www.w3.org/1999/xlink">
 <defs>
  <style type="text/css">
*{stroke-linecap:butt;stroke-linejoin:round;}
  </style>
 </defs>
 <g id="figure_1">
  <g id="patch_1">
   <path d="M 0 432 
L 504 432 
L 504 0 
L 0 0 
z
" style="fill:#ffffff;"/>
  </g>
  <g id="axes_1">
   <g id="patch_2">
    <path d="M 63 384.48 
L 453.6 384.48 
L 453.6 51.84 
L 63 51.84 
z
" style="fill:#ffffff;"/>
   </g>
   <g id="matplotlib.axis_1">
    <g id="xtick_1">
     <g id="line2d_1">
      <defs>
       <path d="M 0 0 
L 0 3.5 
" id="m2a56066873" style="stroke:#000000;stroke-width:0.8;"/>
      </defs>
      <g>
       <use style="stroke:#000000;stroke-width:0.8;" x="80.754545" xlink:href="#m2a56066873" y="384.48"/>
      </g>
     </g>
     <g id="text_1">
      <!-- 0 -->
      <defs>
       <path d="M 31.78125 66.40625 
Q 24.171875 66.40625 20.328125 58.90625 
Q 16.5 51.421875 16.5 36.375 
Q 16.5 21.390625 20.328125 13.890625 
Q 24.171875 6.390625 31.78125 6.390625 
Q 39.453125 6.390625 43.28125 13.890625 
Q 47.125 21.390625 47.125 36.375 
Q 47.125 51.421875 43.28125 58.90625 
Q 39.453125 66.40625 31.78125 66.40625 
z
M 31.78125 74.21875 
Q 44.046875 74.21875 50.515625 64.515625 
Q 56.984375 54.828125 56.984375 36.375 
Q 56.984375 17.96875 50.515625 8.265625 
Q 44.046875 -1.421875 31.78125 -1.421875 
Q 19.53125 -1.421875 13.0625 8.265625 
Q 6.59375 17.96875 6.59375 36.375 
Q 6.59375 54.828125 13.0625 64.515625 
Q 19.53125 74.21875 31.78125 74.21875 
z
" id="DejaVuSans-30"/>
      </defs>
      <g transform="translate(77.573295 399.078438)scale(0.1 -0.1)">
       <use xlink:href="#DejaVuSans-30"/>
      </g>
     </g>
    </g>
    <g id="xtick_2">
     <g id="line2d_2">
      <g>
       <use style="stroke:#000000;stroke-width:0.8;" x="151.772727" xlink:href="#m2a56066873" y="384.48"/>
      </g>
     </g>
     <g id="text_2">
      <!-- 200 -->
      <defs>
       <path d="M 19.1875 8.296875 
L 53.609375 8.296875 
L 53.609375 0 
L 7.328125 0 
L 7.328125 8.296875 
Q 12.9375 14.109375 22.625 23.890625 
Q 32.328125 33.6875 34.8125 36.53125 
Q 39.546875 41.84375 41.421875 45.53125 
Q 43.3125 49.21875 43.3125 52.78125 
Q 43.3125 58.59375 39.234375 62.25 
Q 35.15625 65.921875 28.609375 65.921875 
Q 23.96875 65.921875 18.8125 64.3125 
Q 13.671875 62.703125 7.8125 59.421875 
L 7.8125 69.390625 
Q 13.765625 71.78125 18.9375 73 
Q 24.125 74.21875 28.421875 74.21875 
Q 39.75 74.21875 46.484375 68.546875 
Q 53.21875 62.890625 53.21875 53.421875 
Q 53.21875 48.921875 51.53125 44.890625 
Q 49.859375 40.875 45.40625 35.40625 
Q 44.1875 33.984375 37.640625 27.21875 
Q 31.109375 20.453125 19.1875 8.296875 
z
" id="DejaVuSans-32"/>
      </defs>
      <g transform="translate(142.228977 399.078438)scale(0.1 -0.1)">
       <use xlink:href="#DejaVuSans-32"/>
       <use x="63.623047" xlink:href="#DejaVuSans-30"/>
       <use x="127.246094" xlink:href="#DejaVuSans-30"/>
      </g>
     </g>
    </g>
    <g id="xtick_3">
     <g id="line2d_3">
      <g>
       <use style="stroke:#000000;stroke-width:0.8;" x="222.790909" xlink:href="#m2a56066873" y="384.48"/>
      </g>
     </g>
     <g id="text_3">
      <!-- 400 -->
      <defs>
       <path d="M 37.796875 64.3125 
L 12.890625 25.390625 
L 37.796875 25.390625 
z
M 35.203125 72.90625 
L 47.609375 72.90625 
L 47.609375 25.390625 
L 58.015625 25.390625 
L 58.015625 17.1875 
L 47.609375 17.1875 
L 47.609375 0 
L 37.796875 0 
L 37.796875 17.1875 
L 4.890625 17.1875 
L 4.890625 26.703125 
z
" id="DejaVuSans-34"/>
      </defs>
      <g transform="translate(213.247159 399.078438)scale(0.1 -0.1)">
       <use xlink:href="#DejaVuSans-34"/>
       <use x="63.623047" xlink:href="#DejaVuSans-30"/>
       <use x="127.246094" xlink:href="#DejaVuSans-30"/>
      </g>
     </g>
    </g>
    <g id="xtick_4">
     <g id="line2d_4">
      <g>
       <use style="stroke:#000000;stroke-width:0.8;" x="293.809091" xlink:href="#m2a56066873" y="384.48"/>
      </g>
     </g>
     <g id="text_4">
      <!-- 600 -->
      <defs>
       <path d="M 33.015625 40.375 
Q 26.375 40.375 22.484375 35.828125 
Q 18.609375 31.296875 18.609375 23.390625 
Q 18.609375 15.53125 22.484375 10.953125 
Q 26.375 6.390625 33.015625 6.390625 
Q 39.65625 6.390625 43.53125 10.953125 
Q 47.40625 15.53125 47.40625 23.390625 
Q 47.40625 31.296875 43.53125 35.828125 
Q 39.65625 40.375 33.015625 40.375 
z
M 52.59375 71.296875 
L 52.59375 62.3125 
Q 48.875 64.0625 45.09375 64.984375 
Q 41.3125 65.921875 37.59375 65.921875 
Q 27.828125 65.921875 22.671875 59.328125 
Q 17.53125 52.734375 16.796875 39.40625 
Q 19.671875 43.65625 24.015625 45.921875 
Q 28.375 48.1875 33.59375 48.1875 
Q 44.578125 48.1875 50.953125 41.515625 
Q 57.328125 34.859375 57.328125 23.390625 
Q 57.328125 12.15625 50.6875 5.359375 
Q 44.046875 -1.421875 33.015625 -1.421875 
Q 20.359375 -1.421875 13.671875 8.265625 
Q 6.984375 17.96875 6.984375 36.375 
Q 6.984375 53.65625 15.1875 63.9375 
Q 23.390625 74.21875 37.203125 74.21875 
Q 40.921875 74.21875 44.703125 73.484375 
Q 48.484375 72.75 52.59375 71.296875 
z
" id="DejaVuSans-36"/>
      </defs>
      <g transform="translate(284.265341 399.078438)scale(0.1 -0.1)">
       <use xlink:href="#DejaVuSans-36"/>
       <use x="63.623047" xlink:href="#DejaVuSans-30"/>
       <use x="127.246094" xlink:href="#DejaVuSans-30"/>
      </g>
     </g>
    </g>
    <g id="xtick_5">
     <g id="line2d_5">
      <g>
       <use style="stroke:#000000;stroke-width:0.8;" x="364.827273" xlink:href="#m2a56066873" y="384.48"/>
      </g>
     </g>
     <g id="text_5">
      <!-- 800 -->
      <defs>
       <path d="M 31.78125 34.625 
Q 24.75 34.625 20.71875 30.859375 
Q 16.703125 27.09375 16.703125 20.515625 
Q 16.703125 13.921875 20.71875 10.15625 
Q 24.75 6.390625 31.78125 6.390625 
Q 38.8125 6.390625 42.859375 10.171875 
Q 46.921875 13.96875 46.921875 20.515625 
Q 46.921875 27.09375 42.890625 30.859375 
Q 38.875 34.625 31.78125 34.625 
z
M 21.921875 38.8125 
Q 15.578125 40.375 12.03125 44.71875 
Q 8.5 49.078125 8.5 55.328125 
Q 8.5 64.0625 14.71875 69.140625 
Q 20.953125 74.21875 31.78125 74.21875 
Q 42.671875 74.21875 48.875 69.140625 
Q 55.078125 64.0625 55.078125 55.328125 
Q 55.078125 49.078125 51.53125 44.71875 
Q 48 40.375 41.703125 38.8125 
Q 48.828125 37.15625 52.796875 32.3125 
Q 56.78125 27.484375 56.78125 20.515625 
Q 56.78125 9.90625 50.3125 4.234375 
Q 43.84375 -1.421875 31.78125 -1.421875 
Q 19.734375 -1.421875 13.25 4.234375 
Q 6.78125 9.90625 6.78125 20.515625 
Q 6.78125 27.484375 10.78125 32.3125 
Q 14.796875 37.15625 21.921875 38.8125 
z
M 18.3125 54.390625 
Q 18.3125 48.734375 21.84375 45.5625 
Q 25.390625 42.390625 31.78125 42.390625 
Q 38.140625 42.390625 41.71875 45.5625 
Q 45.3125 48.734375 45.3125 54.390625 
Q 45.3125 60.0625 41.71875 63.234375 
Q 38.140625 66.40625 31.78125 66.40625 
Q 25.390625 66.40625 21.84375 63.234375 
Q 18.3125 60.0625 18.3125 54.390625 
z
" id="DejaVuSans-38"/>
      </defs>
      <g transform="translate(355.283523 399.078438)scale(0.1 -0.1)">
       <use xlink:href="#DejaVuSans-38"/>
       <use x="63.623047" xlink:href="#DejaVuSans-30"/>
       <use x="127.246094" xlink:href="#DejaVuSans-30"/>
      </g>
     </g>
    </g>
    <g id="text_6">
     <!-- time [ms] -->
     <defs>
      <path d="M 18.3125 70.21875 
L 18.3125 54.6875 
L 36.8125 54.6875 
L 36.8125 47.703125 
L 18.3125 47.703125 
L 18.3125 18.015625 
Q 18.3125 11.328125 20.140625 9.421875 
Q 21.96875 7.515625 27.59375 7.515625 
L 36.8125 7.515625 
L 36.8125 0 
L 27.59375 0 
Q 17.1875 0 13.234375 3.875 
Q 9.28125 7.765625 9.28125 18.015625 
L 9.28125 47.703125 
L 2.6875 47.703125 
L 2.6875 54.6875 
L 9.28125 54.6875 
L 9.28125 70.21875 
z
" id="DejaVuSans-74"/>
      <path d="M 9.421875 54.6875 
L 18.40625 54.6875 
L 18.40625 0 
L 9.421875 0 
z
M 9.421875 75.984375 
L 18.40625 75.984375 
L 18.40625 64.59375 
L 9.421875 64.59375 
z
" id="DejaVuSans-69"/>
      <path d="M 52 44.1875 
Q 55.375 50.25 60.0625 53.125 
Q 64.75 56 71.09375 56 
Q 79.640625 56 84.28125 50.015625 
Q 88.921875 44.046875 88.921875 33.015625 
L 88.921875 0 
L 79.890625 0 
L 79.890625 32.71875 
Q 79.890625 40.578125 77.09375 44.375 
Q 74.3125 48.1875 68.609375 48.1875 
Q 61.625 48.1875 57.5625 43.546875 
Q 53.515625 38.921875 53.515625 30.90625 
L 53.515625 0 
L 44.484375 0 
L 44.484375 32.71875 
Q 44.484375 40.625 41.703125 44.40625 
Q 38.921875 48.1875 33.109375 48.1875 
Q 26.21875 48.1875 22.15625 43.53125 
Q 18.109375 38.875 18.109375 30.90625 
L 18.109375 0 
L 9.078125 0 
L 9.078125 54.6875 
L 18.109375 54.6875 
L 18.109375 46.1875 
Q 21.1875 51.21875 25.484375 53.609375 
Q 29.78125 56 35.6875 56 
Q 41.65625 56 45.828125 52.96875 
Q 50 49.953125 52 44.1875 
z
" id="DejaVuSans-6d"/>
      <path d="M 56.203125 29.59375 
L 56.203125 25.203125 
L 14.890625 25.203125 
Q 15.484375 15.921875 20.484375 11.0625 
Q 25.484375 6.203125 34.421875 6.203125 
Q 39.59375 6.203125 44.453125 7.46875 
Q 49.3125 8.734375 54.109375 11.28125 
L 54.109375 2.78125 
Q 49.265625 0.734375 44.1875 -0.34375 
Q 39.109375 -1.421875 33.890625 -1.421875 
Q 20.796875 -1.421875 13.15625 6.1875 
Q 5.515625 13.8125 5.515625 26.8125 
Q 5.515625 40.234375 12.765625 48.109375 
Q 20.015625 56 32.328125 56 
Q 43.359375 56 49.78125 48.890625 
Q 56.203125 41.796875 56.203125 29.59375 
z
M 47.21875 32.234375 
Q 47.125 39.59375 43.09375 43.984375 
Q 39.0625 48.390625 32.421875 48.390625 
Q 24.90625 48.390625 20.390625 44.140625 
Q 15.875 39.890625 15.1875 32.171875 
z
" id="DejaVuSans-65"/>
      <path id="DejaVuSans-20"/>
      <path d="M 8.59375 75.984375 
L 29.296875 75.984375 
L 29.296875 69 
L 17.578125 69 
L 17.578125 -6.203125 
L 29.296875 -6.203125 
L 29.296875 -13.1875 
L 8.59375 -13.1875 
z
" id="DejaVuSans-5b"/>
      <path d="M 44.28125 53.078125 
L 44.28125 44.578125 
Q 40.484375 46.53125 36.375 47.5 
Q 32.28125 48.484375 27.875 48.484375 
Q 21.1875 48.484375 17.84375 46.4375 
Q 14.5 44.390625 14.5 40.28125 
Q 14.5 37.15625 16.890625 35.375 
Q 19.28125 33.59375 26.515625 31.984375 
L 29.59375 31.296875 
Q 39.15625 29.25 43.1875 25.515625 
Q 47.21875 21.78125 47.21875 15.09375 
Q 47.21875 7.46875 41.1875 3.015625 
Q 35.15625 -1.421875 24.609375 -1.421875 
Q 20.21875 -1.421875 15.453125 -0.5625 
Q 10.6875 0.296875 5.421875 2 
L 5.421875 11.28125 
Q 10.40625 8.6875 15.234375 7.390625 
Q 20.0625 6.109375 24.8125 6.109375 
Q 31.15625 6.109375 34.5625 8.28125 
Q 37.984375 10.453125 37.984375 14.40625 
Q 37.984375 18.0625 35.515625 20.015625 
Q 33.0625 21.96875 24.703125 23.78125 
L 21.578125 24.515625 
Q 13.234375 26.265625 9.515625 29.90625 
Q 5.8125 33.546875 5.8125 39.890625 
Q 5.8125 47.609375 11.28125 51.796875 
Q 16.75 56 26.8125 56 
Q 31.78125 56 36.171875 55.265625 
Q 40.578125 54.546875 44.28125 53.078125 
z
" id="DejaVuSans-73"/>
      <path d="M 30.421875 75.984375 
L 30.421875 -13.1875 
L 9.71875 -13.1875 
L 9.71875 -6.203125 
L 21.390625 -6.203125 
L 21.390625 69 
L 9.71875 69 
L 9.71875 75.984375 
z
" id="DejaVuSans-5d"/>
     </defs>
     <g transform="translate(234.038281 412.756563)scale(0.1 -0.1)">
      <use xlink:href="#DejaVuSans-74"/>
      <use x="39.208984" xlink:href="#DejaVuSans-69"/>
      <use x="66.992188" xlink:href="#DejaVuSans-6d"/>
      <use x="164.404297" xlink:href="#DejaVuSans-65"/>
      <use x="225.927734" xlink:href="#DejaVuSans-20"/>
      <use x="257.714844" xlink:href="#DejaVuSans-5b"/>
      <use x="296.728516" xlink:href="#DejaVuSans-6d"/>
      <use x="394.140625" xlink:href="#DejaVuSans-73"/>
      <use x="446.240234" xlink:href="#DejaVuSans-5d"/>
     </g>
    </g>
   </g>
   <g id="matplotlib.axis_2">
    <g id="ytick_1">
     <g id="line2d_6">
      <defs>
       <path d="M 0 0 
L -3.5 0 
" id="mca78476cfa" style="stroke:#000000;stroke-width:0.8;"/>
      </defs>
      <g>
       <use style="stroke:#000000;stroke-width:0.8;" x="63" xlink:href="#mca78476cfa" y="381.948871"/>
      </g>
     </g>
     <g id="text_7">
      <!-- −80 -->
      <defs>
       <path d="M 10.59375 35.5 
L 73.1875 35.5 
L 73.1875 27.203125 
L 10.59375 27.203125 
z
" id="DejaVuSans-2212"/>
      </defs>
      <g transform="translate(34.895313 385.74809)scale(0.1 -0.1)">
       <use xlink:href="#DejaVuSans-2212"/>
       <use x="83.789062" xlink:href="#DejaVuSans-38"/>
       <use x="147.412109" xlink:href="#DejaVuSans-30"/>
      </g>
     </g>
    </g>
    <g id="ytick_2">
     <g id="line2d_7">
      <g>
       <use style="stroke:#000000;stroke-width:0.8;" x="63" xlink:href="#mca78476cfa" y="329.542679"/>
      </g>
     </g>
     <g id="text_8">
      <!-- −60 -->
      <g transform="translate(34.895313 333.341898)scale(0.1 -0.1)">
       <use xlink:href="#DejaVuSans-2212"/>
       <use x="83.789062" xlink:href="#DejaVuSans-36"/>
       <use x="147.412109" xlink:href="#DejaVuSans-30"/>
      </g>
     </g>
    </g>
    <g id="ytick_3">
     <g id="line2d_8">
      <g>
       <use style="stroke:#000000;stroke-width:0.8;" x="63" xlink:href="#mca78476cfa" y="277.136487"/>
      </g>
     </g>
     <g id="text_9">
      <!-- −40 -->
      <g transform="translate(34.895313 280.935706)scale(0.1 -0.1)">
       <use xlink:href="#DejaVuSans-2212"/>
       <use x="83.789062" xlink:href="#DejaVuSans-34"/>
       <use x="147.412109" xlink:href="#DejaVuSans-30"/>
      </g>
     </g>
    </g>
    <g id="ytick_4">
     <g id="line2d_9">
      <g>
       <use style="stroke:#000000;stroke-width:0.8;" x="63" xlink:href="#mca78476cfa" y="224.730295"/>
      </g>
     </g>
     <g id="text_10">
      <!-- −20 -->
      <g transform="translate(34.895313 228.529514)scale(0.1 -0.1)">
       <use xlink:href="#DejaVuSans-2212"/>
       <use x="83.789062" xlink:href="#DejaVuSans-32"/>
       <use x="147.412109" xlink:href="#DejaVuSans-30"/>
      </g>
     </g>
    </g>
    <g id="ytick_5">
     <g id="line2d_10">
      <g>
       <use style="stroke:#000000;stroke-width:0.8;" x="63" xlink:href="#mca78476cfa" y="172.324103"/>
      </g>
     </g>
     <g id="text_11">
      <!-- 0 -->
      <g transform="translate(49.6375 176.123322)scale(0.1 -0.1)">
       <use xlink:href="#DejaVuSans-30"/>
      </g>
     </g>
    </g>
    <g id="ytick_6">
     <g id="line2d_11">
      <g>
       <use style="stroke:#000000;stroke-width:0.8;" x="63" xlink:href="#mca78476cfa" y="119.917911"/>
      </g>
     </g>
     <g id="text_12">
      <!-- 20 -->
      <g transform="translate(43.275 123.71713)scale(0.1 -0.1)">
       <use xlink:href="#DejaVuSans-32"/>
       <use x="63.623047" xlink:href="#DejaVuSans-30"/>
      </g>
     </g>
    </g>
    <g id="ytick_7">
     <g id="line2d_12">
      <g>
       <use style="stroke:#000000;stroke-width:0.8;" x="63" xlink:href="#mca78476cfa" y="67.511719"/>
      </g>
     </g>
     <g id="text_13">
      <!-- 40 -->
      <g transform="translate(43.275 71.310938)scale(0.1 -0.1)">
       <use xlink:href="#DejaVuSans-34"/>
       <use x="63.623047" xlink:href="#DejaVuSans-30"/>
      </g>
     </g>
    </g>
    <g id="text_14">
     <!-- voltage [mV] -->
     <defs>
      <path d="M 2.984375 54.6875 
L 12.5 54.6875 
L 29.59375 8.796875 
L 46.6875 54.6875 
L 56.203125 54.6875 
L 35.6875 0 
L 23.484375 0 
z
" id="DejaVuSans-76"/>
      <path d="M 30.609375 48.390625 
Q 23.390625 48.390625 19.1875 42.75 
Q 14.984375 37.109375 14.984375 27.296875 
Q 14.984375 17.484375 19.15625 11.84375 
Q 23.34375 6.203125 30.609375 6.203125 
Q 37.796875 6.203125 41.984375 11.859375 
Q 46.1875 17.53125 46.1875 27.296875 
Q 46.1875 37.015625 41.984375 42.703125 
Q 37.796875 48.390625 30.609375 48.390625 
z
M 30.609375 56 
Q 42.328125 56 49.015625 48.375 
Q 55.71875 40.765625 55.71875 27.296875 
Q 55.71875 13.875 49.015625 6.21875 
Q 42.328125 -1.421875 30.609375 -1.421875 
Q 18.84375 -1.421875 12.171875 6.21875 
Q 5.515625 13.875 5.515625 27.296875 
Q 5.515625 40.765625 12.171875 48.375 
Q 18.84375 56 30.609375 56 
z
" id="DejaVuSans-6f"/>
      <path d="M 9.421875 75.984375 
L 18.40625 75.984375 
L 18.40625 0 
L 9.421875 0 
z
" id="DejaVuSans-6c"/>
      <path d="M 34.28125 27.484375 
Q 23.390625 27.484375 19.1875 25 
Q 14.984375 22.515625 14.984375 16.5 
Q 14.984375 11.71875 18.140625 8.90625 
Q 21.296875 6.109375 26.703125 6.109375 
Q 34.1875 6.109375 38.703125 11.40625 
Q 43.21875 16.703125 43.21875 25.484375 
L 43.21875 27.484375 
z
M 52.203125 31.203125 
L 52.203125 0 
L 43.21875 0 
L 43.21875 8.296875 
Q 40.140625 3.328125 35.546875 0.953125 
Q 30.953125 -1.421875 24.3125 -1.421875 
Q 15.921875 -1.421875 10.953125 3.296875 
Q 6 8.015625 6 15.921875 
Q 6 25.140625 12.171875 29.828125 
Q 18.359375 34.515625 30.609375 34.515625 
L 43.21875 34.515625 
L 43.21875 35.40625 
Q 43.21875 41.609375 39.140625 45 
Q 35.0625 48.390625 27.6875 48.390625 
Q 23 48.390625 18.546875 47.265625 
Q 14.109375 46.140625 10.015625 43.890625 
L 10.015625 52.203125 
Q 14.9375 54.109375 19.578125 55.046875 
Q 24.21875 56 28.609375 56 
Q 40.484375 56 46.34375 49.84375 
Q 52.203125 43.703125 52.203125 31.203125 
z
" id="DejaVuSans-61"/>
      <path d="M 45.40625 27.984375 
Q 45.40625 37.75 41.375 43.109375 
Q 37.359375 48.484375 30.078125 48.484375 
Q 22.859375 48.484375 18.828125 43.109375 
Q 14.796875 37.75 14.796875 27.984375 
Q 14.796875 18.265625 18.828125 12.890625 
Q 22.859375 7.515625 30.078125 7.515625 
Q 37.359375 7.515625 41.375 12.890625 
Q 45.40625 18.265625 45.40625 27.984375 
z
M 54.390625 6.78125 
Q 54.390625 -7.171875 48.1875 -13.984375 
Q 42 -20.796875 29.203125 -20.796875 
Q 24.46875 -20.796875 20.265625 -20.09375 
Q 16.0625 -19.390625 12.109375 -17.921875 
L 12.109375 -9.1875 
Q 16.0625 -11.328125 19.921875 -12.34375 
Q 23.78125 -13.375 27.78125 -13.375 
Q 36.625 -13.375 41.015625 -8.765625 
Q 45.40625 -4.15625 45.40625 5.171875 
L 45.40625 9.625 
Q 42.625 4.78125 38.28125 2.390625 
Q 33.9375 0 27.875 0 
Q 17.828125 0 11.671875 7.65625 
Q 5.515625 15.328125 5.515625 27.984375 
Q 5.515625 40.671875 11.671875 48.328125 
Q 17.828125 56 27.875 56 
Q 33.9375 56 38.28125 53.609375 
Q 42.625 51.21875 45.40625 46.390625 
L 45.40625 54.6875 
L 54.390625 54.6875 
z
" id="DejaVuSans-67"/>
      <path d="M 28.609375 0 
L 0.78125 72.90625 
L 11.078125 72.90625 
L 34.1875 11.53125 
L 57.328125 72.90625 
L 67.578125 72.90625 
L 39.796875 0 
z
" id="DejaVuSans-56"/>
     </defs>
     <g transform="translate(28.815625 250.624062)rotate(-90)scale(0.1 -0.1)">
      <use xlink:href="#DejaVuSans-76"/>
      <use x="59.179688" xlink:href="#DejaVuSans-6f"/>
      <use x="120.361328" xlink:href="#DejaVuSans-6c"/>
      <use x="148.144531" xlink:href="#DejaVuSans-74"/>
      <use x="187.353516" xlink:href="#DejaVuSans-61"/>
      <use x="248.632812" xlink:href="#DejaVuSans-67"/>
      <use x="312.109375" xlink:href="#DejaVuSans-65"/>
      <use x="373.632812" xlink:href="#DejaVuSans-20"/>
      <use x="405.419922" xlink:href="#DejaVuSans-5b"/>
      <use x="444.433594" xlink:href="#DejaVuSans-6d"/>
      <use x="541.845703" xlink:href="#DejaVuSans-56"/>
      <use x="610.253906" xlink:href="#DejaVuSans-5d"/>
     </g>
    </g>
   </g>
   <g id="line2d_13">
    <path clip-path="url(#pcf3e84336f)" d="M 80.754545 342.644227 
L 81.961855 342.507971 
L 83.772818 342.565094 
L 85.974382 342.58396 
L 151.772727 342.575313 
L 152.314241 298.130146 
L 152.420768 249.580263 
L 152.562805 68.361224 
L 152.678209 93.534538 
L 153.565936 369.085247 
L 153.610323 368.984889 
L 153.8145 367.608441 
L 154.293873 362.86306 
L 154.959668 353.757746 
L 157.42755 314.934715 
L 157.613973 303.826961 
L 157.738255 281.899948 
L 157.835905 219.453254 
L 157.969064 92.679531 
L 158.031205 105.808854 
L 158.883423 368.661543 
L 158.945564 368.478383 
L 159.203005 366.50267 
L 159.717886 360.839657 
L 160.534595 348.933494 
L 161.8218 330.835016 
L 162.514227 320.486627 
L 162.771668 312.979178 
L 162.940336 301.008818 
L 163.064618 273.091515 
L 163.162268 188.840255 
L 163.268795 93.598212 
L 163.322059 103.094738 
L 163.863573 297.852393 
L 164.147645 368.485196 
L 164.183155 368.629837 
L 164.245295 368.448774 
L 164.493859 366.548525 
L 165.008741 360.905165 
L 165.834327 348.876109 
L 167.112655 330.909432 
L 167.813959 320.451253 
L 168.0714 312.934109 
L 168.240068 300.924444 
L 168.36435 272.84573 
L 168.462 188.095956 
L 168.568527 93.674987 
L 168.621791 103.316416 
L 169.172182 301.797269 
L 169.4385 368.399512 
L 169.482886 368.627741 
L 169.545027 368.442747 
L 169.802468 366.458911 
L 170.31735 360.77808 
L 171.151814 348.587613 
L 172.430141 330.667054 
L 173.113691 320.432911 
L 173.371132 312.897686 
L 173.5398 300.828802 
L 173.664082 272.508234 
L 173.761732 186.946662 
L 173.868259 93.691757 
L 173.921523 103.551982 
L 174.480791 305.861369 
L 174.729355 368.290245 
L 174.782618 368.627741 
L 174.844759 368.438555 
L 175.1022 366.451574 
L 175.617082 360.767336 
L 176.451545 348.574774 
L 177.729873 330.656311 
L 178.413423 320.416141 
L 178.670864 312.861788 
L 178.839532 300.731851 
L 178.963814 272.161829 
L 179.061464 185.763724 
L 179.167991 93.709051 
L 179.221255 103.790168 
L 179.7894 310.028447 
L 180.029086 368.302561 
L 180.08235 368.628003 
L 180.144491 368.4341 
L 180.401932 366.444237 
L 180.916814 360.756855 
L 181.751277 348.562458 
L 183.029605 330.645829 
L 183.713155 320.399109 
L 183.970595 312.825628 
L 184.139264 300.633851 
L 184.263545 271.807301 
L 184.361195 184.55998 
L 184.467723 93.732896 
L 184.520986 104.032022 
L 185.098009 314.287237 
L 185.328818 368.314614 
L 185.382082 368.628003 
L 185.444223 368.429908 
L 185.701664 366.436638 
L 186.216545 360.746374 
L 187.051009 348.549881 
L 188.329336 330.635348 
L 189.012886 320.382339 
L 189.270327 312.789206 
L 189.438995 300.53428 
L 189.563277 271.447533 
L 189.660927 183.35144 
L 189.767455 93.762505 
L 189.820718 104.276235 
L 190.406618 318.618084 
L 190.619673 368.180978 
L 190.681814 368.627741 
L 190.743955 368.425453 
L 191.010273 366.348072 
L 191.525155 360.621123 
L 192.368495 348.264791 
L 193.637945 330.509573 
L 194.312618 320.365045 
L 194.570059 312.752783 
L 194.738727 300.434184 
L 194.863009 271.084358 
L 194.969536 168.802014 
L 195.058309 93.749141 
L 195.12045 104.523068 
L 195.715227 322.995049 
L 195.919405 368.196438 
L 195.981545 368.627741 
L 196.043686 368.420999 
L 196.310005 366.340473 
L 196.833764 360.495348 
L 197.703736 347.707975 
L 198.955432 330.268767 
L 199.61235 320.348013 
L 199.869791 312.715837 
L 200.038459 300.33304 
L 200.162741 270.713846 
L 200.269268 167.540833 
L 200.358041 93.719794 
L 200.420182 104.774094 
L 201.023836 327.381186 
L 201.219136 368.211112 
L 201.281277 368.627217 
L 201.343418 368.416544 
L 201.609736 366.332874 
L 202.133495 360.484343 
L 202.994591 347.83113 
L 204.255164 330.258023 
L 204.912082 320.330457 
L 205.169523 312.678366 
L 205.338191 300.230324 
L 205.462473 270.335736 
L 205.569 166.271188 
L 205.657773 93.697521 
L 205.719914 105.026954 
L 206.332445 331.728541 
L 206.518868 368.225785 
L 206.581009 368.626955 
L 206.634273 368.458469 
L 206.873959 366.646525 
L 207.388841 361.044827 
L 208.187795 349.453625 
L 209.510509 330.821914 
L 210.202936 320.497108 
L 210.460377 313.032894 
L 210.629045 301.191977 
L 210.753327 273.797165 
L 210.850977 191.396472 
L 210.957505 93.682324 
L 211.019645 105.280862 
L 211.641055 335.983138 
L 211.827477 368.371213 
L 211.880741 368.626431 
L 211.934005 368.454276 
L 212.182568 366.559531 
L 212.69745 360.920886 
L 213.514159 349.031494 
L 214.810241 330.811171 
L 215.502668 320.480076 
L 215.760109 312.996996 
L 215.928777 301.095812 
L 216.053059 273.458358 
L 216.150709 190.219429 
L 216.257236 93.676035 
L 216.319377 105.534246 
L 216.949664 340.081564 
L 217.127209 368.381694 
L 217.171595 368.626955 
L 217.233736 368.450084 
L 217.4823 366.552194 
L 217.997182 360.910405 
L 218.822768 348.882398 
L 220.101095 330.915197 
L 220.8024 320.463044 
L 221.059841 312.96136 
L 221.228509 300.999909 
L 221.352791 273.118242 
L 221.450441 189.042962 
L 221.556968 93.676559 
L 221.610232 103.131684 
L 222.151745 297.907681 
L 222.426941 368.391651 
L 222.471327 368.627217 
L 222.533468 368.445891 
L 222.782032 366.544857 
L 223.296914 360.899924 
L 224.1225 348.869558 
L 225.418582 330.675177 
L 226.111009 320.26128 
L 226.36845 312.529271 
L 226.537118 299.817625 
L 226.652523 272.775506 
L 226.750173 187.861805 
L 226.8567 93.682586 
L 226.909964 103.368822 
L 227.460355 301.872472 
L 227.726673 368.401346 
L 227.771059 368.627741 
L 227.8332 368.441699 
L 228.090641 366.457076 
L 228.605523 360.775459 
L 229.439986 348.584469 
L 230.718314 330.664434 
L 231.401864 320.42898 
L 231.659305 312.889301 
L 231.827973 300.806792 
L 231.952255 272.430411 
L 232.049905 186.680439 
L 232.156432 93.695425 
L 232.209695 103.605698 
L 232.768964 305.939716 
L 233.017527 368.293127 
L 233.070791 368.627741 
L 233.132932 368.437506 
L 233.390373 366.44974 
L 233.905255 360.764978 
L 234.739718 348.571891 
L 236.018045 330.653952 
L 236.701595 320.41221 
L 236.959036 312.853665 
L 237.127705 300.70984 
L 237.251986 272.082172 
L 237.349636 185.492312 
L 237.456164 93.713767 
L 237.509427 103.844932 
L 238.077573 310.109153 
L 238.317259 368.305181 
L 238.370523 368.628003 
L 238.432664 368.433314 
L 238.690105 366.442403 
L 239.204986 360.754497 
L 240.03945 348.559576 
L 241.317777 330.643471 
L 242.001327 320.39544 
L 242.258768 312.817505 
L 242.427436 300.611317 
L 242.551718 271.72581 
L 242.649368 184.285764 
L 242.755895 93.739184 
L 242.809159 104.087311 
L 243.386182 314.369776 
L 243.616991 368.317234 
L 243.670255 368.628003 
L 243.732395 368.428859 
L 243.989836 366.435066 
L 244.504718 360.744015 
L 245.348059 348.410742 
L 246.617509 330.632728 
L 247.301059 320.378408 
L 247.5585 312.781083 
L 247.727168 300.511483 
L 247.85145 271.365517 
L 247.9491 183.076046 
L 248.055627 93.770366 
L 248.108891 104.332048 
L 248.694791 318.702458 
L 248.907845 368.184647 
L 248.969986 368.627741 
L 249.032127 368.424667 
L 249.298445 366.346499 
L 249.822205 360.503733 
L 250.692177 347.717932 
L 251.943873 330.277152 
L 252.600791 320.361114 
L 252.858232 312.744398 
L 253.0269 300.411125 
L 253.151182 271.000508 
L 253.257709 168.514881 
L 253.346482 93.741805 
L 253.408623 104.580191 
L 254.0034 323.080996 
L 254.207577 368.199844 
L 254.269718 368.627479 
L 254.331859 368.420212 
L 254.598177 366.338901 
L 255.121936 360.492728 
L 255.983032 347.841087 
L 257.22585 330.496472 
L 257.900523 320.344082 
L 258.157964 312.707452 
L 258.326632 300.309719 
L 258.450914 270.628162 
L 258.557441 167.251105 
L 258.646214 93.714029 
L 258.708355 104.832003 
L 259.312009 327.467132 
L 259.507309 368.214518 
L 259.56945 368.627217 
L 259.631591 368.415496 
L 259.897909 366.33104 
L 260.421668 360.481985 
L 261.291641 347.692515 
L 262.525582 330.485728 
L 263.200255 320.326526 
L 263.457695 312.669981 
L 263.626364 300.206741 
L 263.750645 270.248741 
L 263.857173 165.980936 
L 263.945945 93.693329 
L 264.008086 105.084863 
L 264.620618 331.813177 
L 264.807041 368.229192 
L 264.869182 368.626693 
L 264.922445 368.457683 
L 265.171009 366.565295 
L 265.685891 360.929271 
L 266.511477 348.904933 
L 267.807559 330.704786 
L 268.499986 320.309232 
L 268.757427 312.632511 
L 268.926095 300.103763 
L 269.050377 269.86932 
L 269.156905 164.720227 
L 269.245677 93.680227 
L 269.298941 102.713745 
L 269.8227 290.360928 
L 270.133405 368.539699 
L 270.168914 368.626431 
L 270.222177 368.45349 
L 270.470741 366.557958 
L 270.985623 360.918528 
L 271.802332 349.028611 
L 273.098414 330.808813 
L 273.790841 320.476146 
L 274.048282 312.988873 
L 274.21695 301.074063 
L 274.341232 273.380797 
L 274.438882 189.950166 
L 274.545409 93.675773 
L 274.598673 102.949311 
L 275.131309 294.121334 
L 275.424259 368.477859 
L 275.459768 368.626955 
L 275.521909 368.449298 
L 275.770473 366.550622 
L 276.285355 360.908047 
L 277.110941 348.879516 
L 278.389268 330.912839 
L 279.090573 320.459114 
L 279.348014 312.952975 
L 279.516682 300.977898 
L 279.640964 273.040157 
L 279.738614 188.773595 
L 279.845141 93.677083 
L 279.898405 103.185924 
L 280.439918 297.983408 
L 280.715114 368.393747 
L 280.7595 368.627479 
L 280.821641 368.445105 
L 281.079082 366.462841 
L 281.593964 360.783582 
L 282.428427 348.594164 
L 283.706755 330.672556 
L 284.390305 320.442082 
L 284.647745 312.917077 
L 284.816414 300.881471 
L 284.940695 272.696897 
L 285.038345 187.592333 
L 285.144873 93.684944 
L 285.198136 103.4228 
L 285.748527 301.949247 
L 286.014845 368.403442 
L 286.059232 368.627741 
L 286.121373 368.440651 
L 286.378814 366.455504 
L 286.893695 360.773101 
L 287.728159 348.581586 
L 289.006486 330.662075 
L 289.690036 320.425312 
L 289.947477 312.881178 
L 290.116145 300.784781 
L 290.240427 272.351278 
L 290.338077 186.410075 
L 290.444605 93.699094 
L 290.497868 103.659938 
L 291.057136 306.01885 
L 291.3057 368.29601 
L 291.358964 368.628003 
L 291.421105 368.436458 
L 291.678545 366.448167 
L 292.193427 360.76262 
L 293.027891 348.569009 
L 294.315095 330.536562 
L 294.989768 320.40828 
L 295.247209 312.84528 
L 295.415877 300.687568 
L 295.540159 272.001466 
L 295.637809 185.218044 
L 295.744336 93.719008 
L 295.7976 103.899959 
L 296.365745 310.190382 
L 296.605432 368.308063 
L 296.658695 368.628003 
L 296.720836 368.432266 
L 296.978277 366.440831 
L 297.493159 360.752138 
L 298.327623 348.556694 
L 299.60595 330.641113 
L 300.2895 320.39151 
L 300.546941 312.80912 
L 300.715609 300.58852 
L 300.839891 271.644056 
L 300.937541 184.011156 
L 301.044068 93.745735 
L 301.097332 104.142599 
L 301.674355 314.452316 
L 301.905164 368.319855 
L 301.958427 368.628003 
L 302.020568 368.428073 
L 302.286886 366.352264 
L 302.810645 360.511856 
L 303.671741 347.863622 
L 304.914559 330.5156 
L 305.589232 320.374478 
L 305.846673 312.772698 
L 306.015341 300.488948 
L 306.139623 271.28324 
L 306.24615 169.484867 
L 306.334923 93.767746 
L 306.397064 104.388123 
L 306.982964 318.786832 
L 307.196018 368.188053 
L 307.258159 368.627741 
L 307.3203 368.423619 
L 307.586618 366.344665 
L 308.110377 360.501113 
L 308.971473 347.851044 
L 310.214291 330.504857 
L 310.888964 320.357446 
L 311.146405 312.736013 
L 311.315073 300.388328 
L 311.439355 270.916396 
L 311.545882 168.228769 
L 311.634655 93.734992 
L 311.696795 104.637052 
L 312.291573 323.166418 
L 312.49575 368.203251 
L 312.557891 368.627479 
L 312.620032 368.419164 
L 312.88635 366.337066 
L 313.410109 360.49037 
L 314.280082 347.702211 
L 315.531777 330.263788 
L 316.188695 320.33989 
L 316.446136 312.698805 
L 316.614805 300.286398 
L 316.739086 270.54274 
L 316.845614 166.962478 
L 316.934386 93.708789 
L 316.996527 104.889388 
L 317.600182 327.552816 
L 317.795482 368.217925 
L 317.857623 368.627217 
L 317.910886 368.460827 
L 318.150573 366.650455 
L 318.665455 361.050592 
L 319.464409 349.460438 
L 320.787123 330.827941 
L 321.488427 320.322596 
L 321.745868 312.661334 
L 321.914536 300.183158 
L 322.038818 270.162009 
L 322.145345 165.692073 
L 322.234118 93.68966 
L 322.296259 105.142772 
L 322.908791 331.897551 
L 323.095214 368.232598 
L 323.157355 368.626693 
L 323.210618 368.456635 
L 323.459182 366.563723 
L 323.974064 360.926651 
L 324.790773 349.038306 
L 326.095732 330.702166 
L 326.779282 320.489247 
L 327.036723 313.016648 
L 327.205391 301.148218 
L 327.329673 273.642828 
L 327.427323 190.859833 
L 327.53385 93.678393 
L 327.595991 105.396418 
L 328.2174 336.146121 
L 328.403823 368.375929 
L 328.457086 368.626169 
L 328.51035 368.452442 
L 328.758914 366.556124 
L 329.273795 360.91617 
L 329.318182 360.34206 
L 329.335936 361.241874 
L 329.531236 365.232082 
L 329.620009 365.419958 
L 329.664395 365.362573 
L 329.815309 364.755709 
L 330.214786 361.938615 
L 332.176664 347.180769 
L 332.869091 343.958574 
L 333.428359 342.303063 
L 333.889977 341.559943 
L 334.262823 341.333024 
L 334.609036 341.369708 
L 335.061777 341.658729 
L 336.553159 342.748777 
L 337.156814 342.845467 
L 338.097805 342.735414 
L 339.580309 342.540987 
L 342.110332 342.577409 
L 345.732259 342.573217 
L 435.845455 342.575313 
L 435.845455 342.575313 
" style="fill:none;stroke:#1f77b4;stroke-linecap:square;stroke-width:1.5;"/>
   </g>
   <g id="line2d_14">
    <path clip-path="url(#pcf3e84336f)" d="M 80.754545 342.644227 
L 81.251673 344.212467 
L 81.686659 344.962784 
L 82.059505 345.211858 
L 82.43235 345.198468 
L 82.947232 344.929202 
L 84.607282 343.928968 
L 85.36185 343.816761 
L 86.453755 343.912632 
L 88.397877 344.066803 
L 100.710655 344.026129 
L 151.772727 344.026065 
L 152.314241 299.955386 
L 152.420768 256.157872 
L 152.571682 66.96 
L 152.704841 98.678285 
L 153.583691 369.36 
L 153.645832 369.169988 
L 153.921027 367.216621 
L 154.418155 362.113544 
L 155.128336 352.161612 
L 157.436427 315.207561 
L 157.62285 304.335514 
L 157.756009 280.828158 
L 157.853659 216.2328 
L 157.977941 92.632855 
L 158.048959 106.708361 
L 158.901177 368.927642 
L 158.945564 368.831825 
L 159.140864 367.531428 
L 159.620236 362.787261 
L 160.286032 353.699647 
L 162.727282 315.314007 
L 162.913705 305.100373 
L 163.046864 284.049803 
L 163.153391 219.588344 
L 163.28655 93.702198 
L 163.348691 106.760634 
L 164.200909 368.895436 
L 164.254173 368.762437 
L 164.476105 367.204735 
L 164.964355 362.208479 
L 165.665659 352.422078 
L 167.449991 326.904565 
L 167.902732 318.888818 
L 168.133541 310.558882 
L 168.293332 295.30899 
L 168.408736 256.949491 
L 168.586282 93.819 
L 168.701686 126.327451 
L 169.429623 368.265822 
L 169.500641 368.893385 
L 169.553905 368.753982 
L 169.775836 367.190644 
L 170.272964 362.080954 
L 170.983145 352.125497 
L 172.705336 327.509204 
L 173.184709 319.280875 
L 173.424395 310.96177 
L 173.584186 296.496561 
L 173.699591 261.40554 
L 173.823873 119.537583 
L 173.877136 93.791841 
L 173.939277 104.884611 
L 174.542932 328.815233 
L 174.738232 368.474644 
L 174.800373 368.893171 
L 174.862514 368.704284 
L 175.119955 366.798653 
L 175.625959 361.407604 
L 176.389405 350.468614 
L 177.898541 328.95502 
L 178.457809 319.861516 
L 178.706373 311.798411 
L 178.866164 298.846734 
L 178.981568 269.736346 
L 179.088095 165.449127 
L 179.176868 93.753965 
L 179.239009 105.335971 
L 179.860418 337.258065 
L 180.037964 368.499714 
L 180.100105 368.892864 
L 180.162245 368.696855 
L 180.428564 366.70789 
L 180.943445 361.166435 
L 181.724645 349.899376 
L 183.189395 329.055256 
L 183.748664 320.026749 
L 183.997227 312.158382 
L 184.165895 298.64774 
L 184.2813 269.058004 
L 184.387827 163.24129 
L 184.4766 93.739955 
L 184.529864 103.117899 
L 185.071377 299.054634 
L 185.346573 368.646848 
L 185.399836 368.892191 
L 185.461977 368.689315 
L 185.728295 366.694913 
L 186.243177 361.147874 
L 187.024377 349.87671 
L 188.48025 329.155336 
L 189.048395 319.994042 
L 189.296959 312.087579 
L 189.465627 298.446331 
L 189.581032 268.365539 
L 189.687559 161.031515 
L 189.776332 93.746127 
L 189.829595 103.546596 
L 190.388864 307.081773 
L 190.637427 368.546313 
L 190.690691 368.892294 
L 190.752832 368.72625 
L 191.001395 366.914401 
L 191.5074 361.573532 
L 192.253091 350.946735 
L 193.806614 328.774622 
L 194.348127 319.961393 
L 194.596691 312.01676 
L 194.765359 298.241941 
L 194.880764 267.657256 
L 194.987291 158.818464 
L 195.076064 93.773166 
L 195.129327 103.982031 
L 195.70635 315.485397 
L 195.928282 368.420266 
L 195.990423 368.892898 
L 196.052564 368.719122 
L 196.301127 366.901728 
L 196.807132 361.555323 
L 197.552823 350.924164 
L 199.106345 328.754641 
L 199.647859 319.928525 
L 199.896423 311.945236 
L 200.065091 298.034567 
L 200.180495 266.933802 
L 200.287023 156.617111 
L 200.375795 93.822127 
L 200.429059 104.423331 
L 201.023836 324.129415 
L 201.228014 368.447642 
L 201.290155 368.893202 
L 201.352295 368.711877 
L 201.609736 366.811937 
L 202.115741 361.426603 
L 202.879186 350.492044 
L 204.388323 328.975647 
L 204.947591 319.895612 
L 205.196155 311.87335 
L 205.355945 299.050068 
L 205.47135 270.425365 
L 205.577877 167.733262 
L 205.66665 93.793829 
L 205.728791 104.871499 
L 206.332445 328.795982 
L 206.527745 368.47388 
L 206.589886 368.893162 
L 206.652027 368.704487 
L 206.909468 366.799013 
L 207.415473 361.408119 
L 208.178918 350.46925 
L 209.688055 328.955584 
L 210.247323 319.862462 
L 210.495886 311.800509 
L 210.655677 298.852455 
L 210.771082 269.755838 
L 210.877609 165.513464 
L 210.966382 93.754799 
L 211.028523 105.322822 
L 211.649932 337.239806 
L 211.827477 368.498996 
L 211.889618 368.892875 
L 211.951759 368.69707 
L 212.218077 366.708265 
L 212.732959 361.166972 
L 213.514159 349.900031 
L 214.978909 329.055833 
L 215.538177 320.027697 
L 215.786741 312.160433 
L 215.955409 298.653566 
L 216.070814 269.077942 
L 216.177341 163.305621 
L 216.266114 93.740073 
L 216.319377 103.105515 
L 216.860891 299.037261 
L 217.136086 368.646336 
L 217.18935 368.892214 
L 217.251491 368.689535 
L 217.517809 366.69529 
L 218.032691 361.148412 
L 218.813891 349.877367 
L 220.269764 329.155912 
L 220.837909 319.994991 
L 221.086473 312.089637 
L 221.255141 298.452215 
L 221.370545 268.385829 
L 221.477073 161.095354 
L 221.565845 93.745602 
L 221.619109 103.534136 
L 222.178377 307.063642 
L 222.426941 368.545662 
L 222.480205 368.89227 
L 222.542345 368.726453 
L 222.790909 366.914766 
L 223.296914 361.574057 
L 224.042605 350.947385 
L 225.596127 328.775197 
L 226.137641 319.962334 
L 226.386205 312.018802 
L 226.554873 298.247846 
L 226.670277 267.677748 
L 226.776805 158.881624 
L 226.865577 93.772051 
L 226.918841 103.969508 
L 227.495864 315.466676 
L 227.717795 368.419473 
L 227.779936 368.892886 
L 227.842077 368.719328 
L 228.090641 366.902091 
L 228.596645 361.555844 
L 229.342336 350.92481 
L 230.895859 328.755213 
L 231.437373 319.929466 
L 231.685936 311.947289 
L 231.854605 298.040544 
L 231.970009 266.954789 
L 232.076536 156.680355 
L 232.165309 93.820443 
L 232.218573 104.410499 
L 232.81335 324.110153 
L 233.017527 368.446862 
L 233.079668 368.893197 
L 233.141809 368.712089 
L 233.39925 366.812309 
L 233.905255 361.427136 
L 234.6687 350.492702 
L 236.177836 328.976226 
L 236.737105 319.896567 
L 236.985668 311.875436 
L 237.145459 299.055714 
L 237.260864 270.444467 
L 237.367391 167.797313 
L 237.456164 93.79532 
L 237.518305 104.858523 
L 238.121959 328.776906 
L 238.317259 368.47314 
L 238.3794 368.893167 
L 238.441541 368.7047 
L 238.698982 366.799385 
L 239.204986 361.408651 
L 239.968432 350.469905 
L 241.477568 328.956161 
L 242.036836 319.863415 
L 242.2854 311.802612 
L 242.445191 298.858172 
L 242.560595 269.775291 
L 242.667123 165.577801 
L 242.755895 93.755634 
L 242.818036 105.309648 
L 243.439445 337.221498 
L 243.616991 368.498276 
L 243.679132 368.892886 
L 243.741273 368.697286 
L 244.007591 366.708643 
L 244.522473 361.167512 
L 245.303673 349.900691 
L 246.768423 329.056412 
L 247.327691 320.028645 
L 247.576255 312.162483 
L 247.744923 298.659388 
L 247.860327 269.097859 
L 247.966855 163.369895 
L 248.055627 93.740204 
L 248.108891 103.093149 
L 248.650405 299.019904 
L 248.9256 368.645825 
L 248.978864 368.892236 
L 249.041005 368.689754 
L 249.307323 366.695666 
L 249.822205 361.14895 
L 250.603405 349.878023 
L 252.059277 329.156488 
L 252.627423 319.99594 
L 252.875986 312.091692 
L 253.044655 298.458082 
L 253.160059 268.406051 
L 253.266586 161.158989 
L 253.355359 93.7451 
L 253.408623 103.52172 
L 253.967891 307.045562 
L 254.216455 368.545012 
L 254.269718 368.892245 
L 254.331859 368.726656 
L 254.580423 366.91513 
L 255.086427 361.57458 
L 255.832118 350.948034 
L 257.385641 328.775771 
L 257.927155 319.963273 
L 258.175718 312.020839 
L 258.344386 298.253736 
L 258.459791 267.698186 
L 258.566318 158.944669 
L 258.655091 93.770961 
L 258.708355 103.957019 
L 259.285377 315.448001 
L 259.507309 368.41868 
L 259.56945 368.892874 
L 259.631591 368.719532 
L 259.880155 366.902452 
L 260.386159 361.556364 
L 261.13185 350.925454 
L 262.685373 328.755782 
L 263.226886 319.930404 
L 263.47545 311.949338 
L 263.644118 298.04651 
L 263.759523 266.975732 
L 263.86605 156.743563 
L 263.954823 93.818785 
L 264.008086 104.397688 
L 264.593986 320.084259 
L 264.807041 368.446083 
L 264.869182 368.893192 
L 264.931323 368.7123 
L 265.188764 366.812682 
L 265.694768 361.427669 
L 266.458214 350.493359 
L 267.96735 328.976804 
L 268.526618 319.897521 
L 268.775182 311.877521 
L 268.934973 299.061356 
L 269.050377 270.46355 
L 269.156905 167.861352 
L 269.245677 93.796825 
L 269.307818 104.845554 
L 269.911473 328.757833 
L 270.106773 368.472399 
L 270.168914 368.893171 
L 270.231055 368.704914 
L 270.488495 366.799757 
L 270.9945 361.409182 
L 271.757945 350.47056 
L 273.267082 328.956738 
L 273.82635 319.86437 
L 274.074914 311.804715 
L 274.234705 298.86389 
L 274.350109 269.794695 
L 274.456636 165.641932 
L 274.545409 93.756461 
L 274.60755 105.296502 
L 275.228959 337.203228 
L 275.415382 368.627243 
L 275.468645 368.892897 
L 275.530786 368.697503 
L 275.797105 366.70902 
L 276.311986 361.168052 
L 277.093186 349.90135 
L 278.557936 329.056991 
L 279.117205 320.029592 
L 279.365768 312.164529 
L 279.534436 298.665197 
L 279.649841 269.117734 
L 279.756368 163.434048 
L 279.845141 93.740351 
L 279.898405 103.080816 
L 280.439918 299.00259 
L 280.715114 368.645314 
L 280.768377 368.892258 
L 280.830518 368.689973 
L 281.096836 366.696041 
L 281.611718 361.149486 
L 282.392918 349.878678 
L 283.848791 329.157063 
L 284.416936 319.996886 
L 284.6655 312.093743 
L 284.834168 298.463921 
L 284.949573 268.426174 
L 285.0561 161.222325 
L 285.144873 93.744624 
L 285.198136 103.509363 
L 285.757405 307.027561 
L 286.005968 368.544365 
L 286.059232 368.89222 
L 286.121373 368.726857 
L 286.369936 366.915492 
L 286.875941 361.575101 
L 287.621632 350.94868 
L 289.175155 328.776342 
L 289.716668 319.964207 
L 289.965232 312.022867 
L 290.1339 298.259602 
L 290.249305 267.71854 
L 290.355832 159.007651 
L 290.444605 93.769924 
L 290.497868 103.944551 
L 291.074891 315.42934 
L 291.296823 368.417887 
L 291.358964 368.892861 
L 291.421105 368.719737 
L 291.669668 366.902813 
L 292.175673 361.556883 
L 292.921364 350.926096 
L 294.474886 328.756352 
L 295.0164 319.931341 
L 295.264964 311.951386 
L 295.433632 298.052472 
L 295.549036 266.996664 
L 295.655564 156.806899 
L 295.744336 93.817156 
L 295.7976 104.384867 
L 296.3835 320.065058 
L 296.596555 368.445302 
L 296.658695 368.893186 
L 296.720836 368.712511 
L 296.978277 366.813054 
L 297.484282 361.428202 
L 298.247727 350.494016 
L 299.756864 328.977382 
L 300.316132 319.898477 
L 300.564695 311.879609 
L 300.724486 299.067005 
L 300.839891 270.482661 
L 300.946418 167.925496 
L 301.035191 93.798352 
L 301.097332 104.832575 
L 301.700986 328.738739 
L 301.896286 368.471657 
L 301.958427 368.893176 
L 302.020568 368.705127 
L 302.278009 366.800128 
L 302.784014 361.409713 
L 303.547459 350.471215 
L 305.056595 328.957316 
L 305.615864 319.865324 
L 305.864427 311.806819 
L 306.024218 298.869612 
L 306.139623 269.814111 
L 306.24615 165.70611 
L 306.334923 93.757307 
L 306.397064 105.283356 
L 307.018473 337.184955 
L 307.204895 368.626696 
L 307.258159 368.892909 
L 307.3203 368.69772 
L 307.586618 366.709397 
L 308.1015 361.168591 
L 308.8827 349.902009 
L 310.34745 329.05757 
L 310.906718 320.030539 
L 311.155282 312.166576 
L 311.32395 298.67101 
L 311.439355 269.137618 
L 311.545882 163.498245 
L 311.634655 93.740516 
L 311.687918 103.068484 
L 312.229432 298.985275 
L 312.504627 368.644803 
L 312.557891 368.89228 
L 312.620032 368.690191 
L 312.88635 366.696416 
L 313.401232 361.150023 
L 314.182432 349.879334 
L 315.638305 329.157638 
L 316.20645 319.997833 
L 316.455014 312.095794 
L 316.623682 298.469762 
L 316.739086 268.446305 
L 316.845614 161.285699 
L 316.934386 93.744165 
L 316.98765 103.497008 
L 317.546918 307.009561 
L 317.795482 368.543717 
L 317.848745 368.892196 
L 317.910886 368.727059 
L 318.15945 366.915854 
L 318.665455 361.575621 
L 319.411145 350.949325 
L 320.964668 328.776913 
L 321.506182 319.965142 
L 321.754745 312.024896 
L 321.923414 298.26547 
L 322.038818 267.738901 
L 322.145345 159.070701 
L 322.234118 93.768913 
L 322.287382 103.932078 
L 322.864405 315.410664 
L 323.086336 368.417093 
L 323.148477 368.892848 
L 323.210618 368.719941 
L 323.459182 366.903175 
L 323.965186 361.557402 
L 324.710877 350.92674 
L 326.2644 328.756921 
L 326.805914 319.932279 
L 327.054477 311.953436 
L 327.223145 298.05844 
L 327.33855 267.017618 
L 327.445077 156.870319 
L 327.53385 93.815541 
L 327.587114 104.372041 
L 328.173014 320.045828 
L 328.386068 368.444519 
L 328.448209 368.89318 
L 328.51035 368.712722 
L 328.767791 366.813427 
L 329.273795 361.428735 
L 329.318182 360.868868 
L 329.335936 361.779459 
L 329.540114 366.101913 
L 329.646641 366.375646 
L 329.691027 366.335113 
L 329.833064 365.870756 
L 330.188155 363.725704 
L 332.744809 346.58216 
L 333.375095 344.333974 
L 333.889977 343.23141 
L 334.307209 342.808071 
L 334.671177 342.736204 
L 335.079532 342.898997 
L 335.825223 343.49949 
L 336.686318 344.085175 
L 337.352114 344.267752 
L 338.168823 344.244476 
L 341.116077 343.983547 
L 350.179773 344.026419 
L 435.845455 344.026065 
L 435.845455 344.026065 
" style="fill:none;stroke:#ff0000;stroke-linecap:square;stroke-width:1.5;"/>
   </g>
   <g id="patch_3">
    <path d="M 63 384.48 
L 63 51.84 
" style="fill:none;stroke:#000000;stroke-linecap:square;stroke-linejoin:miter;stroke-width:0.8;"/>
   </g>
   <g id="patch_4">
    <path d="M 453.6 384.48 
L 453.6 51.84 
" style="fill:none;stroke:#000000;stroke-linecap:square;stroke-linejoin:miter;stroke-width:0.8;"/>
   </g>
   <g id="patch_5">
    <path d="M 63 384.48 
L 453.6 384.48 
" style="fill:none;stroke:#000000;stroke-linecap:square;stroke-linejoin:miter;stroke-width:0.8;"/>
   </g>
   <g id="patch_6">
    <path d="M 63 51.84 
L 453.6 51.84 
" style="fill:none;stroke:#000000;stroke-linecap:square;stroke-linejoin:miter;stroke-width:0.8;"/>
   </g>
   <g id="legend_1">
    <g id="patch_7">
     <path d="M 383.460938 89.19625 
L 446.6 89.19625 
Q 448.6 89.19625 448.6 87.19625 
L 448.6 58.84 
Q 448.6 56.84 446.6 56.84 
L 383.460938 56.84 
Q 381.460938 56.84 381.460938 58.84 
L 381.460938 87.19625 
Q 381.460938 89.19625 383.460938 89.19625 
z
" style="fill:#ffffff;opacity:0.8;stroke:#cccccc;stroke-linejoin:miter;"/>
    </g>
    <g id="line2d_15">
     <path d="M 385.460938 64.938437 
L 405.460938 64.938437 
" style="fill:none;stroke:#1f77b4;stroke-linecap:square;stroke-width:1.5;"/>
    </g>
    <g id="line2d_16"/>
    <g id="text_15">
     <!-- target -->
     <defs>
      <path d="M 41.109375 46.296875 
Q 39.59375 47.171875 37.8125 47.578125 
Q 36.03125 48 33.890625 48 
Q 26.265625 48 22.1875 43.046875 
Q 18.109375 38.09375 18.109375 28.8125 
L 18.109375 0 
L 9.078125 0 
L 9.078125 54.6875 
L 18.109375 54.6875 
L 18.109375 46.1875 
Q 20.953125 51.171875 25.484375 53.578125 
Q 30.03125 56 36.53125 56 
Q 37.453125 56 38.578125 55.875 
Q 39.703125 55.765625 41.0625 55.515625 
z
" id="DejaVuSans-72"/>
     </defs>
     <g transform="translate(413.460938 68.438437)scale(0.1 -0.1)">
      <use xlink:href="#DejaVuSans-74"/>
      <use x="39.208984" xlink:href="#DejaVuSans-61"/>
      <use x="100.488281" xlink:href="#DejaVuSans-72"/>
      <use x="141.585938" xlink:href="#DejaVuSans-67"/>
      <use x="205.0625" xlink:href="#DejaVuSans-65"/>
      <use x="266.585938" xlink:href="#DejaVuSans-74"/>
     </g>
    </g>
    <g id="line2d_17">
     <path d="M 385.460938 79.616562 
L 405.460938 79.616562 
" style="fill:none;stroke:#ff0000;stroke-linecap:square;stroke-width:1.5;"/>
    </g>
    <g id="line2d_18"/>
    <g id="text_16">
     <!-- model -->
     <defs>
      <path d="M 45.40625 46.390625 
L 45.40625 75.984375 
L 54.390625 75.984375 
L 54.390625 0 
L 45.40625 0 
L 45.40625 8.203125 
Q 42.578125 3.328125 38.25 0.953125 
Q 33.9375 -1.421875 27.875 -1.421875 
Q 17.96875 -1.421875 11.734375 6.484375 
Q 5.515625 14.40625 5.515625 27.296875 
Q 5.515625 40.1875 11.734375 48.09375 
Q 17.96875 56 27.875 56 
Q 33.9375 56 38.25 53.625 
Q 42.578125 51.265625 45.40625 46.390625 
z
M 14.796875 27.296875 
Q 14.796875 17.390625 18.875 11.75 
Q 22.953125 6.109375 30.078125 6.109375 
Q 37.203125 6.109375 41.296875 11.75 
Q 45.40625 17.390625 45.40625 27.296875 
Q 45.40625 37.203125 41.296875 42.84375 
Q 37.203125 48.484375 30.078125 48.484375 
Q 22.953125 48.484375 18.875 42.84375 
Q 14.796875 37.203125 14.796875 27.296875 
z
" id="DejaVuSans-64"/>
     </defs>
     <g transform="translate(413.460938 83.116562)scale(0.1 -0.1)">
      <use xlink:href="#DejaVuSans-6d"/>
      <use x="97.412109" xlink:href="#DejaVuSans-6f"/>
      <use x="158.59375" xlink:href="#DejaVuSans-64"/>
      <use x="222.070312" xlink:href="#DejaVuSans-65"/>
      <use x="283.59375" xlink:href="#DejaVuSans-6c"/>
     </g>
    </g>
   </g>
  </g>
 </g>
 <defs>
  <clipPath id="pcf3e84336f">
   <rect height="332.64" width="390.6" x="63" y="51.84"/>
  </clipPath>
 </defs>
</svg>
